<?xml version="1.0" encoding="UTF-8"?>
<svg width="239px" height="62px" viewBox="0 0 239 62" version="1.1" xmlns="http://www.w3.org/2000/svg" xmlns:xlink="http://www.w3.org/1999/xlink">
    <!-- Generator: Sketch 52.6 (67491) - http://www.bohemiancoding.com/sketch -->
    <title>AionFoundation</title>
    <desc>Created with Sketch.</desc>
    <defs>
        <polygon id="path-1" points="0 81.5638298 246 81.5638298 246 0.436170213 0 0.436170213"></polygon>
    </defs>
    <g id="Welcome" stroke="none" stroke-width="1" fill="none" fill-rule="evenodd">
        <g id="Home_v4@2x" transform="translate(-600.000000, -2878.000000)">
            <g id="Text_box4" transform="translate(597.000000, 2748.000000)">
                <g id="AionFoundation" transform="translate(0.000000, 120.000000)">
                    <path d="M40.2454963,51.1849202 C34.655785,54.1956178 27.6974247,51.8796263 24.7315441,46.2058884 C21.9936468,40.6479349 24.0469948,33.8162012 29.5224897,30.9214401 C34.9981346,27.9108946 41.9566447,29.9951652 44.9225253,35.6689031 C47.8884059,41.2268567 45.8350578,48.1743747 40.2454963,51.1849202 M49.8276874,33.0057107 C45.4928581,24.6687804 35.2262677,21.5424505 27.0130253,26.0583448 C18.9138495,30.4583026 15.8337524,40.5321505 19.9404486,48.7532965 C24.2752778,57.2061633 34.5418683,60.4482775 42.8691772,56.0481676 C51.0824196,51.6480576 54.1623668,41.3427932 49.8276874,33.0057107" id="Fill-1" fill="#FFFFFF"></path>
                    <path d="M58.6493101,47.5425532 C58.6493101,47.6599762 58.6493101,47.6599762 58.5357432,47.7773992 C55.8099893,57.5241274 47.7462944,64.8048178 37.9789474,66.4487401 L38.8874823,71.9680851 C50.6991821,69.9715851 60.3529623,61.1643954 63.7601173,49.3040528 C63.7601173,49.1866298 63.7601173,49.1866298 63.8736842,49.0692068 C62.0566144,48.5995147 60.0122617,47.8948223 58.6493101,47.5425532" id="Fill-3" fill="#FFFFFF"></path>
                    <path d="M59.9653522,40.5638298 L65.6,40.5638298 C65.6,31.5582647 61.6088554,22.8988982 54.6828505,17.0106383 L50.9263158,21.1671463 C56.6785,26.1316535 59.9653522,33.1745665 59.9653522,40.5638298" id="Fill-5" fill="#FFFFFF"></path>
                    <path d="M27.6210526,16.1470531 C19.3175223,18.5405172 12.6970504,25.151073 10.3406213,33.5851064 L5.17894737,32.103381 C8.09639599,21.8457202 16.0633146,13.7535889 26.2744585,10.9042553 L27.6210526,16.1470531 Z" id="Fill-7" fill="#FFFFFF"></path>
                    <path d="M29.4234295,71.0957447 C28.0743739,70.8702101 26.7251705,70.6445274 25.4885362,70.1934582 C12.7840428,66.5847569 3.78989548,54.9689855 3.45263158,41.6617048 L8.8491495,41.4361702 C9.18641341,52.3751897 16.4942412,61.8482345 26.9500131,64.8932476 C28.0743739,65.2315494 29.0861656,65.4569358 30.2105263,65.5698513 L29.4234295,71.0957447 Z" id="Fill-9" fill="#FFFFFF"></path>
                    <path d="M48.3368421,13.0601592 L45.9871304,17.8829787 C42.9661145,16.4250061 39.6092995,15.5276448 36.2526316,15.4154931 L36.4763996,10.0319149 C40.6164029,10.2562184 44.644375,11.265584 48.3368421,13.0601592" id="Fill-11" fill="#FFFFFF"></path>
                    <polygon id="Fill-13" fill="#FFFFFF" points="90.6315789 47.5425532 90.6315789 49.3589843 82.2087133 49.3589843 82.2087133 54.8081286 89.9486803 54.8081286 89.9486803 56.6245598 82.2087133 56.6245598 82.2087133 64.1170213 80.2736842 64.1170213 80.2736842 47.5425532"></polygon>
                    <path d="M95.2520385,55.3374143 C95.2520385,57.363375 95.9289844,58.9394181 97.1702001,60.1775052 C98.4112676,61.4157403 99.9909563,62.0909126 101.796294,62.2036139 C103.714455,62.2036139 105.181171,61.5281457 106.422239,60.2899107 C107.663454,58.9394181 108.3404,57.363375 108.3404,55.4499677 C108.3404,53.5364124 107.776279,51.9605172 106.535063,50.6098767 C105.293996,49.2590883 103.714455,48.5837681 101.796294,48.5837681 C99.8781319,48.5837681 98.2984433,49.2590883 97.1702001,50.6098767 C95.9289844,51.8481117 95.2520385,53.423859 95.2520385,55.3374143 M101.796294,46.6702128 C104.278577,46.6702128 106.309563,47.4582343 108.001927,49.1466828 C109.581616,50.7224301 110.484211,52.8610921 110.484211,55.3374143 C110.484211,57.9262898 109.581616,59.9523985 108.001927,61.6406991 C106.309563,63.2165943 104.278577,64.0046158 101.909118,64.1170213 C99.4268347,64.1170213 97.3958488,63.3291476 95.7033358,61.6406991 C94.1237954,59.9523985 93.2210526,57.9262898 93.2210526,55.4499677 C93.2210526,52.9736455 94.0108228,50.9475368 95.7033358,49.2590883 C97.1702001,47.5707877 99.3138621,46.6702128 101.796294,46.6702128" id="Fill-15" fill="#FFFFFF"></path>
                    <path d="M116.667593,47.6580879 L116.667593,57.8259042 C116.667593,59.5589253 116.997142,60.8299592 117.766092,61.7542372 C118.425335,62.6786669 119.523834,63.140654 120.842033,63.140654 C122.270226,63.140654 123.25902,62.6786669 123.918119,61.7542372 C124.577218,60.8299592 124.906768,59.5589253 125.016762,57.9412871 L125.016762,47.6580879 L126.884211,47.6580879 L126.884211,58.1723566 C126.884211,60.3676685 126.334961,61.9853066 125.346168,63.140654 C124.247669,64.2961533 122.819476,64.9893617 120.842033,64.9893617 C118.974585,64.9893617 117.436542,64.411688 116.447893,63.140654 C115.349249,61.9853066 114.8,60.2521337 114.8,58.0568218 L114.8,47.5425532 L116.667593,47.5425532 L116.667593,47.6580879 Z" id="Fill-17" fill="#FFFFFF"></path>
                    <polygon id="Fill-19" fill="#FFFFFF" points="135.376561 47.5425532 144.843291 61.2982624 144.843291 47.5425532 146.736842 47.5425532 146.736842 64.1170213 144.286597 64.1170213 134.819574 50.3613121 134.819574 64.1170213 132.926316 64.1170213 132.926316 47.5425532"></polygon>
                    <path d="M156.853859,62.200235 C158.901246,62.200235 160.607551,61.6363697 161.745137,60.5089355 C162.882574,59.3815013 163.565036,57.8027971 163.565036,55.6606721 C163.565036,53.6311424 162.996467,52.0525863 161.858731,50.9251521 C160.721294,49.7977179 159.015139,49.2338527 156.853859,49.2338527 L153.100018,49.2338527 L153.100018,62.0873434 L156.853859,62.0873434 L156.853859,62.200235 Z M157.308834,47.5425532 C159.697451,47.5425532 161.745137,48.3319053 163.337549,49.7977179 C164.93011,51.2633824 165.726316,53.2929121 165.726316,55.7734155 C165.726316,58.2539189 164.93011,60.1707052 163.337549,61.7491131 C161.745137,63.2149258 159.811345,64.0042779 157.308834,64.1170213 L151.052632,64.1170213 L151.052632,47.5425532 L157.308834,47.5425532 Z" id="Fill-21" fill="#FFFFFF"></path>
                    <path d="M176.138675,50.0230788 L172.879092,58.1411221 L179.398115,58.1411221 L176.138675,50.0230788 Z M177.116464,47.5425532 L183.852632,64.1170213 L181.679766,64.1170213 L180.049975,60.0579255 L172.118589,60.0579255 L170.488797,64.1170213 L168.315789,64.1170213 L175.378029,47.5425532 L177.116464,47.5425532 Z" id="Fill-23" fill="#FFFFFF"></path>
                    <polygon id="Fill-25" fill="#FFFFFF" points="195.936842 47.5425532 195.936842 49.358968 190.437094 49.358968 190.437094 64.1170213 188.489222 64.1170213 188.489222 49.358968 182.989474 49.358968 182.989474 47.5425532"></polygon>
                    <mask id="mask-2" fill="white">
                        <use xlink:href="#path-1"></use>
                    </mask>
                    <g id="Clip-28"></g>
                    <polygon id="Fill-27" fill="#FFFFFF" mask="url(#mask-2)" points="200.252632 64.1170213 201.978947 64.1170213 201.978947 47.5425532 200.252632 47.5425532"></polygon>
                    <path d="M209.18875,55.3374143 C209.18875,57.363375 209.865702,58.9394181 211.106928,60.1775052 C212.348154,61.4157403 213.927708,62.0909126 215.733209,62.2036139 C217.651239,62.2036139 219.118116,61.5281457 220.359194,60.2899107 C221.600421,58.9394181 222.277372,57.363375 222.277372,55.4499677 C222.277372,53.5364124 221.713246,51.9605172 220.472019,50.6098767 C219.230793,49.2590883 217.651239,48.5837681 215.733209,48.5837681 C213.814883,48.5837681 212.235329,49.2590883 211.106928,50.6098767 C209.865702,51.8481117 209.301723,53.423859 209.18875,55.3374143 M215.733209,46.6702128 C218.215366,46.6702128 220.246369,47.4582343 221.938896,49.1466828 C223.51845,50.7224301 224.421053,52.8610921 224.421053,55.3374143 C224.421053,57.9262898 223.51845,59.9523985 221.938896,61.6406991 C220.246369,63.2165943 218.215366,64.0046158 215.845886,64.1170213 C213.363582,64.1170213 211.332578,63.3291476 209.640199,61.6406991 C208.060645,59.9523985 207.157895,57.9262898 207.157895,55.4499677 C207.157895,52.9736455 207.947672,50.9475368 209.640199,49.2590883 C211.219753,47.5707877 213.250757,46.6702128 215.733209,46.6702128" id="Fill-29" fill="#FFFFFF" mask="url(#mask-2)"></path>
                    <polygon id="Fill-30" fill="#FFFFFF" mask="url(#mask-2)" points="230.323809 47.5425532 239.790786 61.2982624 239.790786 47.5425532 241.684211 47.5425532 241.684211 64.1170213 239.233939 64.1170213 229.766963 50.3613121 229.766963 64.1170213 227.873684 64.1170213 227.873684 47.5425532"></polygon>
                    <path d="M89.0979465,31.5378047 L94.5282847,31.5378047 L91.8131156,24.4788909 L89.0979465,31.5378047 Z M93.9626554,17.8829787 L103.578947,40.5638298 L98.0354834,40.5638298 L96.1121953,35.8194684 L87.514036,35.8194684 L85.7038737,40.5638298 L80.2736842,40.5638298 L89.8898275,17.8829787 L93.9626554,17.8829787 Z" id="Fill-31" fill="#FFFFFF" mask="url(#mask-2)"></path>
                    <polygon id="Fill-32" fill="#FFFFFF" mask="url(#mask-2)" points="107.031579 40.5638298 112.210526 40.5638298 112.210526 17.8829787 107.031579 17.8829787"></polygon>
                    <polygon id="Fill-33" fill="#FFFFFF" mask="url(#mask-2)" points="152.718586 17.8829787 162.348034 33.6206749 162.464044 33.6206749 162.464044 17.8829787 167.452632 17.8829787 167.452632 40.5638298 160.955761 40.5638298 150.978281 24.4788466 150.862271 24.4788466 150.862271 40.5638298 145.873684 40.5638298 145.873684 17.8829787"></polygon>
                    <path d="M129.042105,17.8829787 C122.593676,17.8829787 117.389474,23.1424278 117.389474,29.6596496 C117.389474,36.1767211 122.593676,41.4361702 129.042105,41.4361702 C135.490684,41.4361702 140.694737,36.1767211 140.694737,29.6596496 C140.694737,23.1424278 135.490684,17.8829787 129.042105,17.8829787 M129.042105,22.6851105 C132.775383,22.6851105 135.943184,25.7721523 135.943184,29.6596496 C135.943184,33.5469966 132.888657,36.6340384 129.042105,36.6340384 C125.308827,36.6340384 122.141026,33.5469966 122.141026,29.6596496 C122.141026,25.7721523 125.195702,22.6851105 129.042105,22.6851105" id="Fill-34" fill="#FFFFFF" mask="url(#mask-2)"></path>
                </g>
            </g>
        </g>
    </g>
</svg>