<?xml version="1.0" encoding="UTF-8"?>
<svg width="281px" height="113px" viewBox="0 0 281 113" version="1.1" xmlns="http://www.w3.org/2000/svg" xmlns:xlink="http://www.w3.org/1999/xlink">
    <!-- Generator: Sketch 53 (72520) - https://sketchapp.com -->
    <title>Combined Shape</title>
    <desc>Created with Sketch.</desc>
    <g id="Page-1" stroke="none" stroke-width="1" fill="none" fill-rule="evenodd">
        <path d="M139.633084,11.0626623 C139.78568,11.4699512 139.580439,11.91619 139.175416,12.0756329 C131.159957,15.2141566 124.121675,20.4625634 118.786352,27.2914646 C113.900463,33.5451179 110.618794,40.9290307 109.268367,48.6949072 C109.193495,49.1237139 108.796078,49.4147324 108.365326,49.3472236 L102.975972,48.5007662 C102.534261,48.4310409 102.228468,48.0119283 102.304152,47.5723355 C103.842894,38.6363455 107.609814,30.1391867 113.227725,22.9485886 C119.360329,15.0992134 127.456378,9.07191724 136.68511,5.4752334 C137.100574,5.3137961 137.572227,5.52874018 137.728394,5.94770172 L139.633084,11.0626623 Z M174.728625,11.5537376 C168.783255,9.20182125 162.523091,8.0633323 156.097267,8.16341699 C155.662056,8.16983469 155.30004,7.83242912 155.28722,7.39729162 L155.151749,3.12018783 C155.138166,2.67303295 155.494287,2.29518314 155.941344,2.28659864 C163.187354,2.16488605 170.246989,3.44957121 176.952008,6.11073011 C177.368254,6.27477151 177.566825,6.75478125 177.394633,7.16846561 L175.757302,11.1239424 C175.590749,11.5255356 175.134971,11.7125828 174.728625,11.5537376 Z M211.25698,54.8718023 L205.806284,55.0865415 C205.371664,55.1035729 205.010436,54.766783 204.986214,54.3316207 C204.225949,40.6781704 197.758789,28.0481637 187.12922,19.4642499 C186.790573,19.1895174 186.728403,18.7005962 186.996832,18.3570235 L190.355265,14.0584248 C190.630466,13.706184 191.146401,13.6435475 191.495564,13.9226882 C203.740703,23.7815134 211.182336,38.3137094 212.032833,54.0249396 C212.057646,54.4707156 211.703617,54.8540078 211.25698,54.8718023 Z M200.38723,91.0450574 C192.655138,100.941684 181.725996,107.939493 169.536476,110.816842 C169.101755,110.920088 168.664186,110.640404 168.567786,110.203418 L167.393279,104.873416 C167.299834,104.448891 167.565875,104.033657 167.988923,103.933981 C178.59229,101.413819 188.098191,95.3167149 194.828602,86.7021813 C199.485466,80.741668 202.597498,74.0069358 204.08907,66.6711267 C204.17692,66.2435762 204.580887,65.9652894 205.010211,66.0443722 L210.375896,67.046193 C210.81539,67.1268767 211.109412,67.5545589 211.020134,67.9936835 C209.329637,76.3377653 205.663449,84.2918052 200.38723,91.0450574 Z M152.430931,110.726457 C152.39514,111.171837 151.999815,111.508906 151.554976,111.465924 C141.187651,110.47766 131.372599,106.560518 123.121338,100.113927 C111.548612,91.0723227 104.243248,78.1199216 102.488861,63.5704903 C102.435187,63.1275455 102.761019,62.7234933 103.205441,62.6760492 L107.462975,62.2245316 C107.896167,62.1784664 108.280076,62.4910989 108.332544,62.924218 C109.912,75.8864905 116.428115,87.4240502 126.740812,95.481212 C134.090588,101.223487 142.828396,104.716499 152.055575,105.609658 C152.48884,105.651212 152.809902,106.026417 152.774924,106.461011 L152.430931,110.726457 Z M180.941377,76.6003625 C170.418151,90.0694779 150.898314,92.4660749 137.428333,81.9421725 C123.958353,71.41827 121.561484,51.8984664 132.084711,38.429351 C142.608997,24.9588788 162.129364,22.5616033 175.599345,33.0855057 C189.069326,43.6094082 191.465664,63.1298903 180.941377,76.6003625 Z M136.870509,42.1684267 C128.409206,52.9984014 130.336023,68.6951676 141.166827,77.1571188 C151.997631,85.6190699 167.694954,83.6917917 176.156257,72.8618169 C184.618621,62.0304853 182.691273,46.3343975 171.859791,37.8719163 C161.028987,29.4099651 145.332343,31.3377735 136.870509,42.1684267 Z M49.472,81.656 L41.602,65.05 C41.422,64.671 41.04,64.43 40.622,64.43 L17.042,64.43 C16.618,64.43 16.233,64.677 16.057,65.063 L8.454,81.644 C8.277,82.029 7.892,82.276 7.468,82.276 L3.086,82.276 C2.289,82.276 1.765,81.446 2.107,80.725 L25.759,31.019 C25.939,30.641 26.32,30.401 26.738,30.401 L31.602,30.401 C32.024,30.401 32.407,30.644 32.585,31.026 L55.838,80.732 C56.175,81.452 55.65,82.276 54.856,82.276 L50.452,82.276 C50.033,82.276 49.651,82.035 49.472,81.656 Z M28.112,39.931 L20.127,56.84 C19.787,57.559 20.312,58.388 21.107,58.388 L36.906,58.388 C37.698,58.388 38.222,57.567 37.89,56.848 L30.077,39.94 C29.691,39.103 28.505,39.098 28.112,39.931 Z M74.854,81.192 L74.854,31.417 C74.854,30.818 75.339,30.332 75.939,30.332 L79.871,30.332 C80.47,30.332 80.956,30.818 80.956,31.417 L80.956,81.192 C80.956,81.791 80.47,82.276 79.871,82.276 L75.939,82.276 C75.34,82.276 74.854,81.791 74.854,81.192 Z M272.26,81.869 L240.75,42.469 C240.109,41.668 238.818,42.121 238.818,43.147 L238.818,81.193 C238.818,81.792 238.332,82.277 237.732,82.277 L233.8,82.277 C233.202,82.277 232.716,81.792 232.716,81.193 L232.716,31.485 C232.716,30.886 233.202,30.401 233.8,30.401 L238.292,30.401 C238.624,30.401 238.937,30.553 239.142,30.813 L270.65,70.727 C271.287,71.535 272.586,71.083 272.586,70.055 L272.586,31.485 C272.586,30.886 273.072,30.401 273.67,30.401 L277.672,30.401 C278.272,30.401 278.756,30.886 278.756,31.485 L278.756,81.192 C278.756,81.791 278.272,82.276 277.672,82.276 L273.108,82.276 C272.778,82.276 272.467,82.126 272.26,81.869 Z" id="Combined-Shape" stroke="#14E7AA" stroke-width="3" fill="#14E7AA" fill-rule="nonzero"></path>
    </g>
</svg>