<?xml version="1.0" encoding="UTF-8"?>
<svg width="227px" height="250px" viewBox="0 0 227 250" version="1.1" xmlns="http://www.w3.org/2000/svg" xmlns:xlink="http://www.w3.org/1999/xlink">
    <!-- Generator: Sketch 52.6 (67491) - http://www.bohemiancoding.com/sketch -->
    <title>Logo</title>
    <desc>Created with Sketch.</desc>
    <defs>
        <filter x="-100.3%" y="-88.1%" width="301.4%" height="276.8%" filterUnits="objectBoundingBox" id="filter-1">
            <feOffset dx="0" dy="30" in="SourceAlpha" result="shadowOffsetOuter1"></feOffset>
            <feGaussianBlur stdDeviation="22.5" in="shadowOffsetOuter1" result="shadowBlurOuter1"></feGaussianBlur>
            <feColorMatrix values="0 0 0 0 0.17713648   0 0 0 0 0.17713648   0 0 0 0 0.17713648  0 0 0 0.119565217 0" type="matrix" in="shadowBlurOuter1" result="shadowMatrixOuter1"></feColorMatrix>
            <feMerge>
                <feMergeNode in="shadowMatrixOuter1"></feMergeNode>
                <feMergeNode in="SourceGraphic"></feMergeNode>
            </feMerge>
        </filter>
        <polygon id="path-2" points="0 0.42783143 68.6358009 0.42783143 68.6358009 64.4701604 0 64.4701604"></polygon>
        <polygon id="path-4" points="0.181838666 0.205150338 58.1691724 0.205150338 58.1691724 40.6237064 0.181838666 40.6237064"></polygon>
    </defs>
    <g id="Welcome" stroke="none" stroke-width="1" fill="none" fill-rule="evenodd">
        <g id="Home_v4@2x" transform="translate(-606.000000, -125.000000)">
            <g id="Logo" filter="url(#filter-1)" transform="translate(648.000000, 139.000000)">
                <path d="M79.6659751,124.880734 C57.242925,124.880734 39,106.319725 39,83.5045872 C39,60.6894489 57.242925,42.1284404 79.6659751,42.1284404 C90.1713479,42.1284404 100.141921,46.1916442 107.740218,53.5704264 C111.258141,56.986492 111.388013,62.6559853 108.03058,66.2348404 C104.674629,69.8141979 99.1014579,69.9468411 95.5835358,66.5307755 C91.276007,62.3474893 85.6228385,60.043818 79.6659751,60.043818 C66.9517778,60.043818 56.6078818,70.568355 56.6078818,83.5045872 C56.6078818,96.4408193 66.9517778,106.965356 79.6659751,106.965356 C85.8253017,106.965356 91.6157502,104.52452 95.9711788,100.094035 C99.4081157,96.5960721 104.983756,96.5960721 108.421186,100.094035 C111.859605,103.591998 111.859605,109.264003 108.421186,112.761966 C100.740423,120.576863 90.5283745,124.880734 79.6659751,124.880734" id="Fill-1" fill="#FFFFFF"></path>
                <path d="M104.852311,66.2018349 C102.586632,66.2018349 100.321449,65.3352096 98.5930186,63.6009628 C95.1356605,60.1329674 95.1356605,54.5108603 98.5930186,51.043363 L124.387899,25.1696171 C127.845257,21.7021198 133.451113,21.7016217 136.906981,25.1696171 C140.36434,28.6376125 140.36434,34.2597196 136.906981,37.727217 L111.111604,63.6009628 C109.383174,65.3347115 107.117494,66.2018349 104.852311,66.2018349" id="Fill-3" fill="#FFFFFF"></path>
                <g id="Group-7" transform="translate(0.000000, 97.798165)">
                    <mask id="mask-3" fill="white">
                        <use xlink:href="#path-2"></use>
                    </mask>
                    <g id="Clip-6"></g>
                    <path d="M59.7251,64.4701604 C58.9666,64.4701604 58.1961,64.3731145 57.4286,64.169567 C31.1206,57.2066501 9.8531,37.8293268 0.5391,12.3351275 C-1.1434,7.73067413 1.2436,2.63949841 5.8701,0.964835032 C10.4971,-0.710823684 15.6111,1.66605366 17.2941,6.27150236 C24.6166,26.3147097 41.3336,41.5474278 62.0101,47.0203173 C66.7681,48.279923 69.5996,53.1391839 68.3341,57.8750225 C67.2731,61.8469358 63.6676,64.4701604 59.7251,64.4701604" id="Fill-5" fill="#14E7AA" mask="url(#mask-3)"></path>
                </g>
                <g id="Group-10" transform="translate(85.500000, 123.376147)">
                    <mask id="mask-5" fill="white">
                        <use xlink:href="#path-4"></use>
                    </mask>
                    <g id="Clip-9"></g>
                    <path d="M9.16649612,40.6237064 C5.04375905,40.6237064 1.32749612,37.8544321 0.397043534,33.7851946 C-0.678146121,29.0806587 2.38049612,24.4211517 7.22792716,23.3771676 C20.9204573,20.4297358 33.0940047,13.4385175 42.4348409,3.16019317 C45.7189099,-0.455329767 51.4019832,-0.800877241 55.1248022,2.38736107 C58.8496384,5.57510994 59.2056815,11.0886968 55.9211082,14.7032408 C44.0461125,27.771396 28.5547073,36.6616571 11.1222116,40.4147138 C10.4666082,40.5561631 9.81150905,40.6237064 9.16649612,40.6237064" id="Fill-8" fill="#FFFFFF" mask="url(#mask-5)"></path>
                </g>
                <path d="M8.88415335,66.2018349 C7.84479846,66.2018349 6.78800473,66.0164545 5.75761839,65.6276567 C1.1657226,63.8900916 -1.15613444,58.7385214 0.571307265,54.1215482 C6.45915803,38.384759 16.82331,24.9291504 30.5431931,15.2067016 C44.5834526,5.25879014 61.1124838,0 78.3435528,0 C88.4869789,0 98.4007105,1.81973378 107.809214,5.40959957 C118.753332,9.58516713 128.533034,15.9271799 136.876273,24.2592759 C140.357564,27.7354083 140.376996,33.3910127 136.919621,36.8911944 C133.462247,40.3913762 127.83847,40.4099142 124.357179,36.9347839 C117.793698,30.3808363 110.106158,25.3936033 101.506817,22.1128718 C94.1192261,19.2940882 86.3255592,17.8646552 78.3435528,17.8646552 C64.7960651,17.8646552 51.8056238,21.9961323 40.7763046,29.8106664 C29.9806659,37.4603623 21.8277589,48.0420741 17.1994907,60.411955 C15.8596895,63.9938044 12.4765545,66.2018349 8.88415335,66.2018349" id="Fill-11" fill="#FFFFFF"></path>
            </g>
        </g>
    </g>
</svg>