<?xml version="1.0" encoding="UTF-8"?>
<svg width="136px" height="34px" viewBox="0 0 136 34" version="1.1" xmlns="http://www.w3.org/2000/svg" xmlns:xlink="http://www.w3.org/1999/xlink">
    <!-- Generator: Sketch 52.6 (67491) - http://www.bohemiancoding.com/sketch -->
    <title>Group 16</title>
    <desc>Created with Sketch.</desc>
    <defs>
        <polygon id="path-1" points="0 33.8833333 135.833489 33.8833333 135.833489 0 0 0"></polygon>
    </defs>
    <g id="Welcome" stroke="none" stroke-width="1" fill="none" fill-rule="evenodd">
        <g id="Home_v4@2x" transform="translate(-81.000000, -27.000000)">
            <g id="Navigation" transform="translate(0.000000, 24.000000)">
                <g id="Group-16" transform="translate(81.000000, 3.000000)">
                    <path d="M35.549264,16.9414667 C35.549264,11.5808 39.5442234,7.78013333 44.9848726,7.78013333 C48.1466291,7.78013333 50.6955742,8.9628 52.36198,11.1024667 L49.2739036,13.9714667 C48.1953165,12.6378 46.8719943,11.9078 45.2299322,11.9078 C42.4115838,11.9078 40.4511064,13.9211333 40.4511064,16.9414667 C40.4511064,19.9621333 42.4115838,21.9751333 45.2299322,21.9751333 C46.8719943,21.9751333 48.1953165,21.2458 49.2739036,19.9118 L52.36198,22.7808 C50.6955742,24.9201333 48.1466291,26.1031333 44.9848726,26.1031333 C39.5442234,26.1031333 35.549264,22.3024667 35.549264,16.9414667" id="Fill-1" fill="#FFFFFF"></path>
                    <polygon id="Fill-3" fill="#FFFFFF" points="70.2272516 8.13256667 70.2272516 25.7505667 65.3750702 25.7505667 65.3750702 18.8795667 58.75781 18.8795667 58.75781 25.7505667 53.9049795 25.7505667 53.9049795 8.13256667 58.75781 8.13256667 58.75781 14.7519 65.3750702 14.7519 65.3750702 8.13256667"></polygon>
                    <path d="M83.118169,18.6529 L80.912632,13.0152333 L78.7067704,18.6529 L83.118169,18.6529 Z M84.5401642,22.3275667 L77.2854243,22.3275667 L75.9374339,25.7505667 L70.9869041,25.7505667 L78.5597346,8.13256667 L83.338885,8.13256667 L90.9363838,25.7505667 L85.8878301,25.7505667 L84.5401642,22.3275667 Z" id="Fill-5" fill="#FFFFFF"></path>
                    <mask id="mask-2" fill="white">
                        <use xlink:href="#path-1"></use>
                    </mask>
                    <g id="Clip-8"></g>
                    <polygon id="Fill-7" fill="#FFFFFF" mask="url(#mask-2)" points="91.6954845 25.7506667 96.548315 25.7506667 96.548315 8.13266667 91.6954845 8.13266667"></polygon>
                    <path d="M112.674182,16.9414667 C112.674182,13.8961333 110.6397,11.9078 108.042068,11.9078 C105.444435,11.9078 103.409953,13.8961333 103.409953,16.9414667 C103.409953,19.9871333 105.444435,21.9751333 108.042068,21.9751333 C110.6397,21.9751333 112.674182,19.9871333 112.674182,16.9414667 M98.5081107,16.9414667 C98.5081107,11.6564667 102.552407,7.78013333 108.042068,7.78013333 C113.531729,7.78013333 117.5757,11.6564667 117.5757,16.9414667 C117.5757,22.2271333 113.531729,26.1031333 108.042068,26.1031333 C102.552407,26.1031333 98.5081107,22.2271333 98.5081107,16.9414667" id="Fill-9" fill="#FFFFFF" mask="url(#mask-2)"></path>
                    <polygon id="Fill-10" fill="#FFFFFF" mask="url(#mask-2)" points="135.833619 8.13256667 135.833619 25.7505667 131.83866 25.7505667 124.265829 16.3629 124.265829 25.7505667 119.511022 25.7505667 119.511022 8.13256667 123.505657 8.13256667 131.079462 17.5205667 131.079462 8.13256667"></polygon>
                    <path d="M15.9090138,25.5806333 C11.3677823,25.5806333 7.67338616,21.7863 7.67338616,17.1229667 C7.67338616,12.4593 11.3677823,8.66496667 15.9090138,8.66496667 C18.0366511,8.66496667 20.0555532,9.49563333 21.5943981,11.0039667 C22.3068563,11.7023 22.3331475,12.8613 21.6531475,13.5929667 C20.9737967,14.3243 19.8448993,14.3513 19.1324411,13.6533 C18.2602883,12.7979667 17.1151618,12.3273 15.9090138,12.3273 C13.3341021,12.3273 11.2392477,14.4786333 11.2392477,17.1229667 C11.2392477,19.7673 13.3341021,21.9186333 15.9090138,21.9186333 C17.1563838,21.9186333 18.3290998,21.4196333 19.21099,20.5139667 C19.9072191,19.7989667 21.0361165,19.7989667 21.7323456,20.5139667 C22.4285747,21.2286333 22.4285747,22.3883 21.7323456,23.1033 C20.176947,24.7006333 18.1087084,25.5806333 15.9090138,25.5806333" id="Fill-11" fill="#FFFFFF" mask="url(#mask-2)"></path>
                    <path d="M20.8871007,13.6250667 C20.4307379,13.6250667 19.9743752,13.4464 19.6264229,13.0887333 C18.9301938,12.3737333 18.9301938,11.2144 19.6264229,10.4994 L24.8216878,5.16406667 C25.5182415,4.44906667 26.6471389,4.44906667 27.343368,5.16406667 C28.0395971,5.87906667 28.0395971,7.0384 27.343368,7.7534 L22.1477785,13.0887333 C21.7998263,13.4460667 21.3431389,13.6250667 20.8871007,13.6250667" id="Fill-12" fill="#FFFFFF" mask="url(#mask-2)"></path>
                    <path d="M11.9458635,33.7336333 C11.7942835,33.7336333 11.6401069,33.7136333 11.4865795,33.6716333 C6.2244506,32.2349667 1.97079905,28.2359667 0.10769642,22.9749667 C-0.228570883,22.0246333 0.248565155,20.9739667 1.1739494,20.6286333 C2.09965823,20.2823 3.12241718,20.7729667 3.45900907,21.7236333 C4.92384916,25.8596333 8.26737184,29.0033 12.4028754,30.1326333 C13.3545508,30.3926333 13.9206224,31.3953 13.6677728,32.3726333 C13.4554959,33.1923 12.734274,33.7336333 11.9458635,33.7336333" id="Fill-13" fill="#14E7AA" mask="url(#mask-2)"></path>
                    <path d="M19.0188372,33.8833667 C18.2012143,33.8833667 17.4644124,33.3023667 17.2800496,32.4483667 C17.066799,31.4610333 17.6731189,30.4833667 18.6345317,30.2643667 C21.349663,29.6457 23.7639064,28.1790333 25.6159733,26.0220333 C26.26741,25.2637 27.3943599,25.1910333 28.1324601,25.8600333 C28.8712095,26.5290333 28.9416439,27.6857 28.2905317,28.4443667 C25.9356869,31.1863667 22.863515,33.0520333 19.4067131,33.8393667 C19.2765556,33.8690333 19.1470473,33.8833667 19.0188372,33.8833667" id="Fill-14" fill="#FFFFFF" mask="url(#mask-2)"></path>
                    <path d="M1.84008974,13.5702333 C1.63138329,13.5702333 1.41943103,13.5322333 1.21234749,13.4525667 C0.290858234,13.0965667 -0.175242005,12.0405667 0.171411933,11.0939 C1.35321623,7.86823333 3.43346444,5.1099 6.18754558,3.11723333 C9.00556945,1.0779 12.3231255,-0.0001 15.7815504,-0.0001 C17.8176554,-0.0001 19.8073451,0.3729 21.6957652,1.1089 C23.8925384,1.9649 25.8552878,3.26456667 27.5298081,4.9729 C28.2286339,5.68523333 28.2325289,6.84456667 27.5385718,7.56223333 C26.8446148,8.27956667 25.716042,8.28356667 25.0172162,7.5709 C23.6997365,6.22756667 22.1566721,5.20523333 20.4308678,4.5329 C18.9481757,3.9549 17.3836888,3.6619 15.7815504,3.6619 C13.0625241,3.6619 10.4551542,4.5089 8.24117804,6.1109 C6.07426635,7.6789 4.43804678,9.8479 3.50909212,12.3835667 C3.24001337,13.1175667 2.56131169,13.5702333 1.84008974,13.5702333" id="Fill-15" fill="#FFFFFF" mask="url(#mask-2)"></path>
                </g>
            </g>
        </g>
    </g>
</svg>