<?xml version="1.0" encoding="UTF-8"?>
<svg width="114px" height="40px" viewBox="0 0 114 40" version="1.1" xmlns="http://www.w3.org/2000/svg" xmlns:xlink="http://www.w3.org/1999/xlink">
    <!-- Generator: Sketch 53.2 (72643) - https://sketchapp.com -->
    <title>Group 34</title>
    <desc>Created with Sketch.</desc>
    <g id="Welcome" stroke="none" stroke-width="1" fill="none" fill-rule="evenodd">
        <g id="Home_Info_v2@2x" transform="translate(-783.000000, -644.000000)">
            <g id="Group-27" transform="translate(544.000000, 645.000000)">
                <g id="Group-31" transform="translate(240.000000, 0.000000)">
                    <g id="Group-34">
                        <g id="Group-33">
                            <g id="Group-32">
                                <g id="Group-29">
                                    <g id="google-play" fill="#000000" stroke="#00BBBB" stroke-linecap="square" stroke-width="0.8">
                                        <rect id="bg" x="-0.4" y="-0.4" width="112.8" height="38.4041667" rx="4.8"></rect>
                                    </g>
                                    <g id="android-character-symbol" transform="translate(9.000000, 7.000000)" fill="#A4CA39" fill-rule="nonzero">
                                        <path d="M1.4118933,7.46820126 C1.02609429,7.46820126 0.69828536,7.6057673 0.429173697,7.8812369 C0.160062035,8.15661006 0.0254119107,8.48695178 0.0254119107,8.87235849 L0.0254119107,14.7921824 C0.0254119107,15.1865577 0.160014888,15.5215283 0.429173697,15.7969015 C0.69828536,16.0723229 1.02590571,16.2097442 1.41175186,16.2097442 C1.79769231,16.2097442 2.12295533,16.0722746 2.38763524,15.7969015 C2.65250372,15.5215283 2.78484367,15.1865577 2.78484367,14.7921824 L2.78484367,8.87235849 C2.78484367,8.48680713 2.6501464,8.15646541 2.38103474,7.8812369 C2.11187593,7.60591195 1.78868734,7.46820126 1.4118933,7.46820126 Z" id="Path"></path>
                                        <path d="M3.32353846,16.8983459 C3.32353846,17.3204465 3.4671464,17.678369 3.75426799,17.9721132 C4.04143672,18.2655199 4.39131017,18.4123438 4.80421836,18.4123438 L5.80032754,18.4123438 L5.81390571,21.5373543 C5.81390571,21.9320671 5.94850868,22.2668449 6.21766749,22.5422662 C6.48677916,22.8176394 6.8099206,22.9552537 7.18676179,22.9552537 C7.57279653,22.9552537 7.90022829,22.8176394 8.16948139,22.5422662 C8.43873449,22.2668449 8.57324318,21.9320671 8.57324318,21.5373543 L8.57324318,18.4123438 L10.43067,18.4123438 L10.43067,21.5373543 C10.43067,21.9320671 10.5652258,22.2668449 10.8343375,22.5422662 C11.1037792,22.8176394 11.4313052,22.9552537 11.8172457,22.9552537 C12.2028561,22.9552537 12.5303821,22.8176394 12.7994938,22.5422662 C13.0686055,22.2668449 13.2030199,21.9320671 13.2030199,21.5373543 L13.2030199,18.4123438 L14.2127072,18.4123438 C14.6162804,18.4123438 14.9618635,18.2658092 15.2489851,17.9721132 C15.536201,17.678369 15.6798089,17.3204465 15.6798089,16.8983459 L15.6798089,7.72973585 L3.32353846,7.72973585 L3.32353846,16.8983459 Z" id="Path"></path>
                                        <path d="M12.5572084,2.15447799 L13.5126303,0.350979036 C13.5755707,0.231687631 13.5529404,0.139928721 13.4454938,0.0757505241 C13.328665,0.0206373166 13.2389926,0.0481698113 13.1763821,0.158396226 L12.2070521,1.97549266 C11.3545509,1.59003774 10.4529702,1.39731027 9.50160298,1.39731027 C8.55047146,1.39731027 7.64856079,1.59003774 6.79601241,1.97549266 L5.82687097,0.158444444 C5.76426055,0.0482180294 5.6743995,0.0206855346 5.55775931,0.0757987421 C5.45002978,0.139976939 5.42772953,0.231735849 5.49052854,0.351027254 L6.44623325,2.15447799 C5.47695037,2.6591761 4.70544665,3.36359329 4.13096774,4.26758491 C3.55667742,5.17162474 3.26946154,6.16057652 3.26946154,7.23419916 L15.7205906,7.23419916 C15.7205906,6.16057652 15.4334218,5.17157652 14.8590844,4.26758491 C14.2845112,3.36359329 13.5176749,2.65912788 12.5572084,2.15447799 Z M7.03160298,4.77686373 C6.9284938,4.88246122 6.80515881,4.93521174 6.66155087,4.93521174 C6.51794293,4.93521174 6.39687097,4.88250943 6.29805211,4.77686373 C6.19946898,4.6714109 6.15001241,4.5451761 6.15001241,4.3983522 C6.15001241,4.25148008 6.19946898,4.12524528 6.29805211,4.0196478 C6.39672953,3.91405031 6.51799007,3.86139623 6.66155087,3.86139623 C6.80497022,3.86139623 6.92835236,3.9140021 7.03160298,4.0196478 C7.1348536,4.12524528 7.18643176,4.25148008 7.18643176,4.3983522 C7.18643176,4.54522432 7.1348536,4.67126625 7.03160298,4.77686373 Z M12.7054367,4.77686373 C12.6065236,4.88246122 12.4853573,4.93521174 12.3417965,4.93521174 C12.1981886,4.93521174 12.0750893,4.88250943 11.9717916,4.77686373 C11.8685409,4.6714109 11.8171042,4.5451761 11.8171042,4.3983522 C11.8171042,4.25148008 11.8685409,4.12524528 11.9717916,4.0196478 C12.0750422,3.91405031 12.1981886,3.86139623 12.3417965,3.86139623 C12.4853573,3.86139623 12.6065236,3.9140021 12.7054367,4.0196478 C12.8038784,4.12524528 12.8534293,4.25148008 12.8534293,4.3983522 C12.8534293,4.54522432 12.8040199,4.67126625 12.7054367,4.77686373 Z" id="Shape"></path>
                                        <path d="M18.5739851,7.8742935 C18.3048734,7.60359748 17.9773474,7.46820126 17.5914069,7.46820126 C17.21466,7.46820126 16.8916129,7.60359748 16.6225012,7.8742935 C16.3532481,8.14508595 16.2185509,8.47783857 16.2185509,8.87235849 L16.2185509,14.7921824 C16.2185509,15.1865577 16.3532481,15.5215283 16.6225012,15.7969015 C16.8916129,16.0723229 17.21466,16.2097442 17.5914069,16.2097442 C17.9773474,16.2097442 18.3048734,16.0722746 18.5739851,15.7969015 C18.8434268,15.5215283 18.9779355,15.1865577 18.9779355,14.7921824 L18.9779355,8.87235849 C18.9779355,8.47779036 18.8434268,8.14503774 18.5739851,7.8742935 Z" id="Path"></path>
                                    </g>
                                </g>
                                <g id="Group-28" transform="translate(79.000000, 6.000000)" fill="#FFFFFF" font-family="OpenSans-Semibold, Open Sans" font-size="7.55999947" font-weight="500" line-spacing="16.5239988">
                                    <g id="google-play-copy">
                                        <g id="Group-30" transform="translate(0.000000, 0.000000)">
                                            <text id="APK">
                                                <tspan x="0" y="8">APK</tspan>
                                            </text>
                                        </g>
                                    </g>
                                </g>
                            </g>
                            <g id="Group-28" transform="translate(36.000000, 14.000000)" fill="#FFFFFF" font-family="OpenSans-Semibold, Open Sans" font-size="14" font-weight="500" line-spacing="30.6">
                                <g id="google-play-copy">
                                    <g id="Group-30" transform="translate(0.000000, 0.000000)">
                                        <text id="Android">
                                            <tspan x="0" y="15">Android</tspan>
                                        </text>
                                    </g>
                                </g>
                            </g>
                        </g>
                        <path d="M42.5115062,10.8703063 C42.5115062,11.8486875 42.2151605,12.585175 41.6233086,13.0797688 C41.0751111,13.536125 40.2960494,13.7647188 39.286963,13.7647188 C38.7866173,13.7647188 38.3584691,13.7431063 38,13.6998813 L38,8.3541125 C38.4676049,8.2793 38.9713086,8.2410625 39.5153086,8.2410625 C40.4765432,8.2410625 41.201037,8.44804375 41.6896296,8.86200625 C42.2369877,9.33 42.5115062,9.99915625 42.5115062,10.8703063 Z M41.5838519,10.8944125 C41.5838519,10.2601687 41.4142716,9.7738875 41.0751111,9.4347375 C40.7359506,9.09641875 40.240642,8.92684375 39.5883457,8.92684375 C39.3113086,8.92684375 39.0754074,8.94513125 38.8798025,8.98336875 L38.8798025,13.04735 C38.9880988,13.063975 39.1862222,13.0714562 39.4741728,13.0714562 C40.1474568,13.0714562 40.6671111,12.8860875 41.0331358,12.51535 C41.3991605,12.1446125 41.5838519,11.6043 41.5838519,10.8944125 Z M47.4301728,11.7248313 C47.4301728,12.3274875 47.2563951,12.82125 46.9088395,13.2086125 C46.5444938,13.6067813 46.0617778,13.80545 45.4590123,13.80545 C44.8780741,13.80545 44.4155062,13.6150938 44.0704691,13.2327188 C43.7262716,12.851175 43.5541728,12.3698813 43.5541728,11.7896688 C43.5541728,11.1828563 43.7313086,10.6849375 44.0872593,10.2984063 C44.4432099,9.911875 44.9217284,9.71819375 45.5244938,9.71819375 C46.1054321,9.71819375 46.5721975,9.90855 46.9256296,10.2900938 C47.2614321,10.6608313 47.4301728,11.1396313 47.4301728,11.7248313 Z M46.5176296,11.7530938 C46.5176296,11.3915 46.438716,11.0814438 46.2817284,10.822925 C46.097037,10.510375 45.8342716,10.3541 45.4925926,10.3541 C45.1391605,10.3541 44.8705185,10.510375 44.6858272,10.822925 C44.528,11.0814438 44.4499259,11.3964875 44.4499259,11.7688875 C44.4499259,12.1304813 44.5288395,12.4405375 44.6858272,12.6990563 C44.8763951,13.0116063 45.141679,13.1678813 45.4841975,13.1678813 C45.82,13.1678813 46.0836049,13.0091125 46.2733333,12.6907438 C46.4361975,12.4272375 46.5176296,12.1146875 46.5176296,11.7530938 Z M54.0253333,9.79799375 L52.7870617,13.7165063 L51.9811358,13.7165063 L51.4681975,12.0149375 C51.3380741,11.5901688 51.2322963,11.1678938 51.1500247,10.7489438 L51.1340741,10.7489438 C51.057679,11.1795313 50.9519012,11.600975 50.8159012,12.0149375 L50.2710617,13.7165063 L49.4559012,13.7165063 L48.2915062,9.79799375 L49.1956543,9.79799375 L49.6431111,11.660825 C49.7514074,12.1013875 49.8403951,12.5211688 49.9117531,12.9185063 L49.9277037,12.9185063 C49.9931852,12.5909938 50.1014815,12.1737063 50.2542716,11.6691375 L50.8159012,9.798825 L51.5328395,9.798825 L52.070963,11.6292375 C52.2010864,12.0756188 52.3068642,12.505375 52.3882963,12.9193375 L52.412642,12.9193375 C52.4722469,12.5161813 52.5620741,12.086425 52.681284,11.6292375 L53.1614815,9.798825 L54.0253333,9.798825 L54.0253333,9.79799375 Z M58.5863704,13.7165063 L57.7065679,13.7165063 L57.7065679,11.4721313 C57.7065679,10.7805313 57.441284,10.4347313 56.909037,10.4347313 C56.6479506,10.4347313 56.4372346,10.5294938 56.2735309,10.71985 C56.1115062,10.9102063 56.0292346,11.1346438 56.0292346,11.3915 L56.0292346,13.715675 L55.1494321,13.715675 L55.1494321,10.9176875 C55.1494321,10.57355 55.1385185,10.2003188 55.1175309,9.79633125 L55.890716,9.79633125 L55.9318519,10.4089625 L55.9561975,10.4089625 C56.0586173,10.2186063 56.2114074,10.0615 56.4120494,9.93598125 C56.6504691,9.78968125 56.9174321,9.7157 57.2095802,9.7157 C57.578963,9.7157 57.8862222,9.8337375 58.1305185,10.0706438 C58.4344198,10.36075 58.5863704,10.7938313 58.5863704,11.3690563 L58.5863704,13.7165063 Z M60.1335802,8 L61.0125432,8 L61.0125432,13.7165062 L60.1335802,13.7165062 L60.1335802,8 Z M66.1922963,11.7248313 C66.1922963,12.3274875 66.0185185,12.82125 65.670963,13.2086125 C65.3066173,13.6067813 64.8230617,13.80545 64.2211358,13.80545 C63.639358,13.80545 63.1767901,13.6150938 62.8325926,13.2327188 C62.4883951,12.851175 62.3162963,12.3698813 62.3162963,11.7896688 C62.3162963,11.1828563 62.4934321,10.6849375 62.8493827,10.2984063 C63.2053333,9.911875 63.6838519,9.71819375 64.2857778,9.71819375 C64.8675556,9.71819375 65.3334815,9.90855 65.6877531,10.2900938 C66.0235556,10.6608313 66.1922963,11.1396313 66.1922963,11.7248313 Z M65.2789136,11.7530938 C65.2789136,11.3915 65.2,11.0814438 65.0430123,10.822925 C64.8591605,10.510375 64.5955556,10.3541 64.254716,10.3541 C63.9004444,10.3541 63.6318025,10.510375 63.4479506,10.822925 C63.2901235,11.0814438 63.2120494,11.3964875 63.2120494,11.7688875 C63.2120494,12.1304813 63.290963,12.4405375 63.4479506,12.6990563 C63.6385185,13.0116063 63.9038025,13.1678813 64.246321,13.1678813 C64.5821235,13.1678813 64.8448889,13.0091125 65.0346173,12.6907438 C65.198321,12.4272375 65.2789136,12.1146875 65.2789136,11.7530938 Z M70.4502716,13.7165063 L69.6602963,13.7165063 L69.5948148,13.2651375 L69.5704691,13.2651375 C69.3001481,13.6250688 68.9148148,13.80545 68.4144691,13.80545 C68.0408889,13.80545 67.7386667,13.6865813 67.5111605,13.4505063 C67.304642,13.2360438 67.2013827,12.9692125 67.2013827,12.6525063 C67.2013827,12.1737063 67.4028642,11.8087875 67.8083457,11.5560875 C68.2129877,11.3033875 68.7821728,11.1795313 69.5150617,11.18535 L69.5150617,11.1122 C69.5150617,10.5959938 69.2413827,10.3383063 68.6931852,10.3383063 C68.3028148,10.3383063 67.9586173,10.4355625 67.6614321,10.6284125 L67.4826173,10.0565125 C67.850321,9.83124375 68.3044938,9.71819375 68.8400988,9.71819375 C69.8743704,9.71819375 70.3931852,10.2585063 70.3931852,11.3391313 L70.3931852,12.7821813 C70.3931852,13.1737 70.4124938,13.4854188 70.4502716,13.7165063 Z M69.5368889,12.3698813 L69.5368889,11.7655625 C68.5664198,11.7489375 68.0811852,12.0124438 68.0811852,12.55525 C68.0811852,12.7597375 68.1365926,12.9126875 68.2499259,13.0149313 C68.3632593,13.117175 68.5076543,13.1678813 68.6797531,13.1678813 C68.8728395,13.1678813 69.0533333,13.1072 69.2178765,12.9866688 C69.3832593,12.8653063 69.4848395,12.711525 69.5226173,12.5228313 C69.5318519,12.4804375 69.5368889,12.4289 69.5368889,12.3698813 Z M75.4495309,13.7165062 L74.6687901,13.7165062 L74.6276543,13.08725 L74.6033086,13.08725 C74.3539753,13.56605 73.9291852,13.80545 73.3322963,13.80545 C72.8554568,13.80545 72.4583704,13.6200812 72.1435556,13.2493437 C71.8287407,12.8786062 71.6717531,12.3973125 71.6717531,11.8062937 C71.6717531,11.17205 71.8421728,10.6583375 72.1846914,10.2659875 C72.5162963,9.9002375 72.9226173,9.7173625 73.4061728,9.7173625 C73.9375802,9.7173625 74.3094815,9.89441875 74.521037,10.2493625 L74.5378272,10.2493625 L74.5378272,8 L75.4184691,8 L75.4184691,12.6608187 C75.4184691,13.0423625 75.4285432,13.3939812 75.4495309,13.7165062 Z M74.5378272,12.0639812 L74.5378272,11.4106187 C74.5378272,11.2975687 74.5294321,11.2061312 74.5134815,11.1363062 C74.4639506,10.9268312 74.3573333,10.7506062 74.1953086,10.6084625 C74.0316049,10.4663187 73.834321,10.3948312 73.6068148,10.3948312 C73.2785679,10.3948312 73.021679,10.523675 72.8327901,10.7821937 C72.6455802,11.0407125 72.550716,11.3707187 72.550716,11.773875 C72.550716,12.1612375 72.6405432,12.47545 72.821037,12.7173437 C73.0116049,12.9750312 73.2684938,13.103875 73.5900247,13.103875 C73.8788148,13.103875 74.109679,12.9966437 74.2851358,12.78135 C74.454716,12.5826812 74.5378272,12.3432812 74.5378272,12.0639812 Z" id="download-on-the" fill="#FFFFFF"></path>
                    </g>
                </g>
            </g>
        </g>
    </g>
</svg>