<?xml version="1.0" encoding="UTF-8"?>
<svg width="114px" height="40px" viewBox="0 0 114 40" version="1.1" xmlns="http://www.w3.org/2000/svg" xmlns:xlink="http://www.w3.org/1999/xlink">
    <!-- Generator: Sketch 53.2 (72643) - https://sketchapp.com -->
    <title>apple</title>
    <desc>Created with Sketch.</desc>
    <g id="Welcome" stroke="none" stroke-width="1" fill="none" fill-rule="evenodd">
        <g id="Home_Info_v2@2x" transform="translate(-543.000000, -644.000000)">
            <g id="Group-27" transform="translate(544.000000, 640.000000)">
                <g id="apple" transform="translate(0.000000, 5.000000)">
                    <rect id="bg" stroke="#00BBBB" fill="#000000" stroke-linecap="square" x="-0.5" y="-0.5" width="113" height="38.6041667" rx="4.8"></rect>
                    <path d="M43.3760494,27.49395 L41.4695309,27.49395 L40.4251852,24.2445938 L36.7951605,24.2445938 L35.8003457,27.49395 L33.9441975,27.49395 L37.540642,16.431675 L39.7619753,16.431675 L43.3760494,27.49395 L43.3760494,27.49395 Z M40.1103704,22.8813438 L37.1108148,22.8813438 L38.0384691,19.99275 C38.2819259,19.0742188 38.4590617,18.3792938 38.569037,17.9088063 L38.6026173,17.9088063 C38.8788148,19.0027313 39.0660247,19.6976563 39.1659259,19.99275 L40.1103704,22.8813438 Z M52.6248889,23.407525 C52.6248889,24.764125 52.2546667,25.8364375 51.5142222,26.6236312 C50.8510123,27.324375 50.0274568,27.6743312 49.0443951,27.6743312 C47.9832593,27.6743312 47.2209877,27.2969437 46.7567407,26.5421687 L46.7231605,26.5421687 L46.7231605,30.7441375 L44.9333333,30.7441375 L44.9333333,22.1431937 C44.9333333,21.2903312 44.9106667,20.415025 44.8670123,19.517275 L46.4410864,19.517275 L46.5409877,20.7816062 L46.5745679,20.7816062 C47.1714568,19.8289937 48.077284,19.3535187 49.2928889,19.3535187 C50.2432099,19.3535187 51.0365432,19.7250875 51.6712099,20.4690562 C52.3075556,21.2138562 52.6248889,22.1930687 52.6248889,23.407525 Z M50.8014815,23.4723625 C50.8014815,22.695975 50.6251852,22.0559125 50.2709136,21.552175 C49.8839012,21.026825 49.3642469,20.76415 48.7127901,20.76415 C48.2712099,20.76415 47.8699259,20.91045 47.5114568,21.1988937 C47.1521481,21.4898312 46.9170864,21.8697125 46.8071111,22.3402 C46.7517037,22.55965 46.724,22.7392 46.724,22.8805125 L46.724,24.2105125 C46.724,24.790725 46.9036543,25.2803312 47.262963,25.6801625 C47.6222716,26.0799937 48.089037,26.2794937 48.6632593,26.2794937 C49.3373827,26.2794937 49.8620741,26.0218062 50.2373333,25.5080937 C50.6134321,24.99355 50.8014815,24.31525 50.8014815,23.4723625 Z M61.8905185,23.407525 C61.8905185,24.764125 61.5202963,25.8364375 60.7790123,26.6236312 C60.116642,27.324375 59.2930864,27.6743312 58.3100247,27.6743312 C57.2488889,27.6743312 56.4866173,27.2969437 56.0232099,26.5421687 L55.9896296,26.5421687 L55.9896296,30.7441375 L54.1998025,30.7441375 L54.1998025,22.1431937 C54.1998025,21.2903312 54.1771358,20.415025 54.1334815,19.517275 L55.7075556,19.517275 L55.8074568,20.7816062 L55.841037,20.7816062 C56.4370864,19.8289937 57.3429136,19.3535187 58.559358,19.3535187 C59.5088395,19.3535187 60.3021728,19.7250875 60.9385185,20.4690562 C61.5723457,21.2138562 61.8905185,22.1930687 61.8905185,23.407525 Z M60.0671111,23.4723625 C60.0671111,22.695975 59.8899753,22.0559125 59.5357037,21.552175 C59.1486914,21.026825 58.630716,20.76415 57.9784198,20.76415 C57.536,20.76415 57.1355556,20.91045 56.7762469,21.1988937 C56.4169383,21.4898312 56.182716,21.8697125 56.0727407,22.3402 C56.0181728,22.55965 55.9896296,22.7392 55.9896296,22.8805125 L55.9896296,24.2105125 C55.9896296,24.790725 56.169284,25.2803312 56.5269136,25.6801625 C56.8862222,26.0791625 57.3529877,26.2794937 57.9288889,26.2794937 C58.6030123,26.2794937 59.1277037,26.0218062 59.502963,25.5080937 C59.8790617,24.99355 60.0671111,24.31525 60.0671111,23.4723625 Z M72.2500247,24.391725 C72.2500247,25.3327 71.9200988,26.0982813 71.2577284,26.6893 C70.5298765,27.3351813 69.5165926,27.6577063 68.2145185,27.6577063 C67.0123457,27.6577063 66.0485926,27.4282813 65.3190617,26.9686 L65.7337778,25.4914688 C66.5195556,25.9619563 67.3817284,26.1980313 68.3211358,26.1980313 C68.9952593,26.1980313 69.5199506,26.0467438 69.8968889,25.7458313 C70.2721481,25.4449188 70.459358,25.0409313 70.459358,24.5371938 C70.459358,24.0883188 70.3048889,23.7101 69.9951111,23.4033688 C69.6870123,23.0966375 69.1723951,22.8115188 68.4537778,22.5480125 C66.4977284,21.8256563 65.5205432,20.767475 65.5205432,19.3759625 C65.5205432,18.466575 65.8630617,17.7209438 66.5489383,17.1407313 C67.2322963,16.5596875 68.144,16.2695813 69.2840494,16.2695813 C70.3006914,16.2695813 71.1452346,16.444975 71.819358,16.7949313 L71.3719012,18.2396438 C70.7422716,17.9004938 70.0303704,17.7309188 69.233679,17.7309188 C68.6040494,17.7309188 68.1120988,17.8847 67.7595062,18.1906 C67.4614815,18.4640813 67.3120494,18.7974125 67.3120494,19.1922563 C67.3120494,19.6294938 67.4824691,19.9910875 67.8249877,20.275375 C68.1230123,20.53805 68.6644938,20.8223375 69.4502716,21.1290688 C70.4115062,21.512275 71.1175309,21.9603188 71.5717037,22.4740313 C72.0241975,22.9860813 72.2500247,23.626975 72.2500247,24.391725 Z M78.1677037,20.847275 L76.1948642,20.847275 L76.1948642,24.7200687 C76.1948642,25.7051 76.5424198,26.1972 77.2392099,26.1972 C77.5590617,26.1972 77.8243457,26.1697687 78.0342222,26.1149062 L78.0837531,27.4607 C77.7311605,27.5912062 77.2669136,27.656875 76.6918519,27.656875 C75.9849877,27.656875 75.4325926,27.4432437 75.0338272,27.0168125 C74.6367407,26.58955 74.4369383,25.8730125 74.4369383,24.8663687 L74.4369383,20.8456125 L73.2616296,20.8456125 L73.2616296,19.5156125 L74.4369383,19.5156125 L74.4369383,18.0551062 L76.1948642,17.5297562 L76.1948642,19.5156125 L78.1677037,19.5156125 L78.1677037,20.847275 Z M87.0689877,23.4399437 C87.0689877,24.6660375 86.714716,25.6726812 86.0078519,26.459875 C85.2665679,27.2703437 84.2826667,27.6743312 83.0561481,27.6743312 C81.8741235,27.6743312 80.933037,27.2861375 80.2312099,26.50975 C79.5293827,25.7333625 79.1784691,24.7533187 79.1784691,23.5721125 C79.1784691,22.3360437 79.5394568,21.3235812 80.2639506,20.5363875 C80.9867654,19.7483625 81.9622716,19.35435 83.1887901,19.35435 C84.3708148,19.35435 85.3219753,19.7425437 86.0397531,20.5197625 C86.7264691,21.2737062 87.0689877,22.2471 87.0689877,23.4399437 Z M85.212,23.4973 C85.212,22.7616437 85.0533333,22.130725 84.7318025,21.6045437 C84.3565432,20.9678062 83.8200988,20.6502687 83.1249877,20.6502687 C82.4055309,20.6502687 81.8590123,20.9686375 81.4837531,21.6045437 C81.1622222,22.1315562 81.0035556,22.77245 81.0035556,23.53055 C81.0035556,24.2662062 81.1622222,24.897125 81.4837531,25.422475 C81.8707654,26.0592125 82.4114074,26.37675 83.109037,26.37675 C83.7923951,26.37675 84.3288395,26.0525625 84.7158519,25.40585 C85.0457778,24.8696937 85.212,24.232125 85.212,23.4973 Z M92.8867654,21.0758687 C92.7096296,21.04345 92.5207407,21.026825 92.3226173,21.026825 C91.6929877,21.026825 91.2060741,21.2620687 90.8635556,21.7333875 C90.5655309,22.1490125 90.4160988,22.6743625 90.4160988,23.3086062 L90.4160988,27.49395 L88.6271111,27.49395 L88.6439012,22.0293125 C88.6439012,21.10995 88.6212346,20.2728812 88.5767407,19.5181062 L90.1357037,19.5181062 L90.2011852,21.0442812 L90.250716,21.0442812 C90.4396049,20.5197625 90.7376296,20.0974875 91.1456296,19.7807812 C91.5443951,19.4956625 91.9750617,19.3535187 92.4393086,19.3535187 C92.6046914,19.3535187 92.7541235,19.3651562 92.8867654,19.3859375 L92.8867654,21.0758687 Z M100.891457,23.128225 C100.891457,23.4457625 100.870469,23.713425 100.825975,23.9320437 L95.4564938,23.9320437 C95.4774815,24.7200687 95.7368889,25.322725 96.2355556,25.73835 C96.6880494,26.1099187 97.2731852,26.2961187 97.9918025,26.2961187 C98.7868148,26.2961187 99.5121481,26.1706 100.164444,25.9187312 L100.44484,27.1489812 C99.6825679,27.4781562 98.7826173,27.6419125 97.7441481,27.6419125 C96.494963,27.6419125 95.5144198,27.277825 94.8008395,26.5504812 C94.0889383,25.8231375 93.7321481,24.8464187 93.7321481,23.6211562 C93.7321481,22.4183375 94.0637531,21.4166812 94.7278025,20.61785 C95.4229136,19.7649875 96.362321,19.3385562 97.5443457,19.3385562 C98.7053827,19.3385562 99.5843457,19.7649875 100.181235,20.61785 C100.653877,21.2953187 100.891457,22.1332187 100.891457,23.128225 Z M99.1847407,22.6685438 C99.1964938,22.1431938 99.0798025,21.6893313 98.8371852,21.306125 C98.5274074,20.8131938 98.0514074,20.5671438 97.4108642,20.5671438 C96.8257284,20.5671438 96.3497284,20.807375 95.9862222,21.2895 C95.6881975,21.6727063 95.5110617,22.1323875 95.4564938,22.6677125 L99.1847407,22.6677125 L99.1847407,22.6685438 Z" id="app-store" fill="#FFFFFF"></path>
                    <path d="M39.5185185,9.62623125 C39.5185185,10.6046125 39.2221728,11.3411 38.630321,11.8356938 C38.0821235,12.29205 37.3030617,12.5206438 36.2939753,12.5206438 C35.7936296,12.5206438 35.3654815,12.4990313 35.0070123,12.4558063 L35.0070123,7.1100375 C35.4746173,7.035225 35.978321,6.9969875 36.522321,6.9969875 C37.4835556,6.9969875 38.2080494,7.20396875 38.696642,7.61793125 C39.244,8.085925 39.5185185,8.75508125 39.5185185,9.62623125 Z M38.5908642,9.6503375 C38.5908642,9.01609375 38.421284,8.5298125 38.0821235,8.1906625 C37.742963,7.85234375 37.2476543,7.68276875 36.595358,7.68276875 C36.318321,7.68276875 36.0824198,7.70105625 35.8868148,7.73929375 L35.8868148,11.803275 C35.9951111,11.8199 36.1932346,11.8273812 36.4811852,11.8273812 C37.1544691,11.8273812 37.6741235,11.6420125 38.0401481,11.271275 C38.4061728,10.9005375 38.5908642,10.360225 38.5908642,9.6503375 Z M44.4371852,10.4807563 C44.4371852,11.0834125 44.2634074,11.577175 43.9158519,11.9645375 C43.5515062,12.3627063 43.0687901,12.561375 42.4660247,12.561375 C41.8850864,12.561375 41.4225185,12.3710188 41.0774815,11.9886438 C40.733284,11.6071 40.5611852,11.1258063 40.5611852,10.5455938 C40.5611852,9.93878125 40.738321,9.4408625 41.0942716,9.05433125 C41.4502222,8.6678 41.9287407,8.47411875 42.5315062,8.47411875 C43.1124444,8.47411875 43.5792099,8.664475 43.932642,9.04601875 C44.2684444,9.41675625 44.4371852,9.89555625 44.4371852,10.4807563 Z M43.524642,10.5090187 C43.524642,10.147425 43.4457284,9.83736875 43.2887407,9.57885 C43.1040494,9.2663 42.841284,9.110025 42.4996049,9.110025 C42.1461728,9.110025 41.8775309,9.2663 41.6928395,9.57885 C41.5350123,9.83736875 41.4569383,10.1524125 41.4569383,10.5248125 C41.4569383,10.8864062 41.5358519,11.1964625 41.6928395,11.4549812 C41.8834074,11.7675312 42.1486914,11.9238062 42.4912099,11.9238062 C42.8270123,11.9238062 43.0906173,11.7650375 43.2803457,11.4466687 C43.4432099,11.1831625 43.524642,10.8706125 43.524642,10.5090187 Z M51.0323457,8.55391875 L49.7940741,12.4724312 L48.9881481,12.4724312 L48.4752099,10.7708625 C48.3450864,10.3460937 48.2393086,9.92381875 48.157037,9.50486875 L48.1410864,9.50486875 C48.0646914,9.93545625 47.9589136,10.3569 47.8229136,10.7708625 L47.2780741,12.4724312 L46.4629136,12.4724312 L45.2985185,8.55391875 L46.2026667,8.55391875 L46.6501235,10.41675 C46.7584198,10.8573125 46.8474074,11.2770937 46.9187654,11.6744312 L46.934716,11.6744312 C47.0001975,11.3469187 47.1084938,10.9296312 47.261284,10.4250625 L47.8229136,8.55475 L48.5398519,8.55475 L49.0779753,10.3851625 C49.2080988,10.8315437 49.3138765,11.2613 49.3953086,11.6752625 L49.4196543,11.6752625 C49.4792593,11.2721062 49.5690864,10.84235 49.6882963,10.3851625 L50.1684938,8.55475 L51.0323457,8.55475 L51.0323457,8.55391875 Z M55.5933827,12.4724313 L54.7135802,12.4724313 L54.7135802,10.2280563 C54.7135802,9.53645625 54.4482963,9.19065625 53.9160494,9.19065625 C53.654963,9.19065625 53.4442469,9.28541875 53.2805432,9.475775 C53.1185185,9.66613125 53.0362469,9.89056875 53.0362469,10.147425 L53.0362469,12.4716 L52.1564444,12.4716 L52.1564444,9.6736125 C52.1564444,9.329475 52.1455309,8.95624375 52.1245432,8.55225625 L52.8977284,8.55225625 L52.9388642,9.1648875 L52.9632099,9.1648875 C53.0656296,8.97453125 53.2184198,8.817425 53.4190617,8.69190625 C53.6574815,8.54560625 53.9244444,8.471625 54.2165926,8.471625 C54.5859753,8.471625 54.8932346,8.5896625 55.1375309,8.82656875 C55.4414321,9.116675 55.5933827,9.54975625 55.5933827,10.1249813 L55.5933827,12.4724313 Z M57.1405926,6.755925 L58.0195556,6.755925 L58.0195556,12.4724312 L57.1405926,12.4724312 L57.1405926,6.755925 Z M63.1993086,10.4807563 C63.1993086,11.0834125 63.0255309,11.577175 62.6779753,11.9645375 C62.3136296,12.3627063 61.8300741,12.561375 61.2281481,12.561375 C60.6463704,12.561375 60.1838025,12.3710188 59.8396049,11.9886438 C59.4954074,11.6071 59.3233086,11.1258063 59.3233086,10.5455938 C59.3233086,9.93878125 59.5004444,9.4408625 59.8563951,9.05433125 C60.2123457,8.6678 60.6908642,8.47411875 61.2927901,8.47411875 C61.8745679,8.47411875 62.3404938,8.664475 62.6947654,9.04601875 C63.0305679,9.41675625 63.1993086,9.89555625 63.1993086,10.4807563 Z M62.2859259,10.5090187 C62.2859259,10.147425 62.2070123,9.83736875 62.0500247,9.57885 C61.8661728,9.2663 61.6025679,9.110025 61.2617284,9.110025 C60.9074568,9.110025 60.6388148,9.2663 60.454963,9.57885 C60.2971358,9.83736875 60.2190617,10.1524125 60.2190617,10.5248125 C60.2190617,10.8864062 60.2979753,11.1964625 60.454963,11.4549812 C60.6455309,11.7675312 60.9108148,11.9238062 61.2533333,11.9238062 C61.5891358,11.9238062 61.8519012,11.7650375 62.0416296,11.4466687 C62.2053333,11.1831625 62.2859259,10.8706125 62.2859259,10.5090187 Z M67.457284,12.4724313 L66.6673086,12.4724313 L66.6018272,12.0210625 L66.5774815,12.0210625 C66.3071605,12.3809938 65.9218272,12.561375 65.4214815,12.561375 C65.0479012,12.561375 64.745679,12.4425063 64.5181728,12.2064313 C64.3116543,11.9919688 64.2083951,11.7251375 64.2083951,11.4084313 C64.2083951,10.9296313 64.4098765,10.5647125 64.815358,10.3120125 C65.22,10.0593125 65.7891852,9.93545625 66.5220741,9.941275 L66.5220741,9.868125 C66.5220741,9.35191875 66.2483951,9.09423125 65.7001975,9.09423125 C65.3098272,9.09423125 64.9656296,9.1914875 64.6684444,9.3843375 L64.4896296,8.8124375 C64.8573333,8.58716875 65.3115062,8.47411875 65.8471111,8.47411875 C66.8813827,8.47411875 67.4001975,9.01443125 67.4001975,10.0950563 L67.4001975,11.5381063 C67.4001975,11.929625 67.4195062,12.2413438 67.457284,12.4724313 Z M66.5439012,11.1258062 L66.5439012,10.5214875 C65.5734321,10.5048625 65.0881975,10.7683687 65.0881975,11.311175 C65.0881975,11.5156625 65.1436049,11.6686125 65.2569383,11.7708562 C65.3702716,11.8731 65.5146667,11.9238062 65.6867654,11.9238062 C65.8798519,11.9238062 66.0603457,11.863125 66.2248889,11.7425937 C66.3902716,11.6212312 66.4918519,11.46745 66.5296296,11.2787562 C66.5388642,11.2363625 66.5439012,11.184825 66.5439012,11.1258062 Z M72.4565432,12.4724312 L71.6758025,12.4724312 L71.6346667,11.843175 L71.610321,11.843175 C71.3609877,12.321975 70.9361975,12.561375 70.3393086,12.561375 C69.8624691,12.561375 69.4653827,12.3760062 69.1505679,12.0052687 C68.8357531,11.6345312 68.6787654,11.1532375 68.6787654,10.5622187 C68.6787654,9.927975 68.8491852,9.4142625 69.1917037,9.0219125 C69.5233086,8.6561625 69.9296296,8.4732875 70.4131852,8.4732875 C70.9445926,8.4732875 71.3164938,8.65034375 71.5280494,9.0052875 L71.5448395,9.0052875 L71.5448395,6.755925 L72.4254815,6.755925 L72.4254815,11.4167437 C72.4254815,11.7982875 72.4355556,12.1499062 72.4565432,12.4724312 Z M71.5448395,10.8199062 L71.5448395,10.1665437 C71.5448395,10.0534937 71.5364444,9.96205625 71.5204938,9.89223125 C71.470963,9.68275625 71.3643457,9.50653125 71.202321,9.3643875 C71.0386173,9.22224375 70.8413333,9.15075625 70.6138272,9.15075625 C70.2855802,9.15075625 70.0286914,9.2796 69.8398025,9.53811875 C69.6525926,9.7966375 69.5577284,10.1266437 69.5577284,10.5298 C69.5577284,10.9171625 69.6475556,11.231375 69.8280494,11.4732687 C70.0186173,11.7309562 70.2755062,11.8598 70.597037,11.8598 C70.8858272,11.8598 71.1166914,11.7525687 71.2921481,11.537275 C71.4617284,11.3386062 71.5448395,11.0992062 71.5448395,10.8199062 Z M79.981037,10.4807563 C79.981037,11.0834125 79.8072593,11.577175 79.4597037,11.9645375 C79.095358,12.3627063 78.6134815,12.561375 78.0098765,12.561375 C77.4297778,12.561375 76.9672099,12.3710188 76.6213333,11.9886438 C76.2771358,11.6071 76.105037,11.1258063 76.105037,10.5455938 C76.105037,9.93878125 76.2821728,9.4408625 76.6381235,9.05433125 C76.9940741,8.6678 77.4725926,8.47411875 78.0761975,8.47411875 C78.6562963,8.47411875 79.1239012,8.664475 79.4764938,9.04601875 C79.8122963,9.41675625 79.981037,9.89555625 79.981037,10.4807563 Z M79.0693333,10.5090187 C79.0693333,10.147425 78.9904198,9.83736875 78.8334321,9.57885 C78.6479012,9.2663 78.3859753,9.110025 78.0434568,9.110025 C77.6908642,9.110025 77.4222222,9.2663 77.2366914,9.57885 C77.0788642,9.83736875 77.0007901,10.1524125 77.0007901,10.5248125 C77.0007901,10.8864062 77.0797037,11.1964625 77.2366914,11.4549812 C77.4272593,11.7675312 77.6925432,11.9238062 78.0350617,11.9238062 C78.3708642,11.9238062 78.6353086,11.7650375 78.825037,11.4466687 C78.9870617,11.1831625 79.0693333,10.8706125 79.0693333,10.5090187 Z M84.7116543,12.4724313 L83.8326914,12.4724313 L83.8326914,10.2280563 C83.8326914,9.53645625 83.5674074,9.19065625 83.034321,9.19065625 C82.7732346,9.19065625 82.5625185,9.28541875 82.3996543,9.475775 C82.2367901,9.66613125 82.155358,9.89056875 82.155358,10.147425 L82.155358,12.4716 L81.274716,12.4716 L81.274716,9.6736125 C81.274716,9.329475 81.264642,8.95624375 81.2436543,8.55225625 L82.016,8.55225625 L82.0571358,9.1648875 L82.0814815,9.1648875 C82.1847407,8.97453125 82.3375309,8.817425 82.5373333,8.69190625 C82.7765926,8.54560625 83.042716,8.471625 83.3357037,8.471625 C83.7042469,8.471625 84.0115062,8.5896625 84.2558025,8.82656875 C84.5605432,9.116675 84.7116543,9.54975625 84.7116543,10.1249813 L84.7116543,12.4724313 Z M90.6326914,9.20645 L89.6639012,9.20645 L89.6639012,11.1100125 C89.6639012,11.5938 89.836,11.8356937 90.1768395,11.8356937 C90.3346667,11.8356937 90.4656296,11.8223937 90.5688889,11.7949625 L90.5915556,12.4558062 C90.4177778,12.5206437 90.1894321,12.5530625 89.9081975,12.5530625 C89.560642,12.5530625 89.290321,12.448325 89.094716,12.23885 C88.8982716,12.029375 88.8008889,11.676925 88.8008889,11.1823312 L88.8008889,9.20645 L88.2224691,9.20645 L88.2224691,8.55391875 L88.8008889,8.55391875 L88.8008889,7.83571875 L89.6630617,7.57803125 L89.6630617,8.5530875 L90.6318519,8.5530875 L90.6318519,9.20645 L90.6326914,9.20645 Z M95.2902716,12.4724312 L94.4096296,12.4724312 L94.4096296,10.2446812 C94.4096296,9.542275 94.1443457,9.19065625 93.6129383,9.19065625 C93.2049383,9.19065625 92.9262222,9.3943125 92.7734321,9.801625 C92.7474074,9.88724375 92.7322963,9.99198125 92.7322963,10.1150062 L92.7322963,12.4716 L91.8533333,12.4716 L91.8533333,6.755925 L92.7322963,6.755925 L92.7322963,9.11750625 L92.7490864,9.11750625 C93.0261235,8.68775 93.4232099,8.4732875 93.9378272,8.4732875 C94.3021728,8.4732875 94.6035556,8.591325 94.8428148,8.82823125 C95.1408395,9.123325 95.2902716,9.562225 95.2902716,10.1424375 L95.2902716,12.4724312 Z M100.094765,10.3278063 C100.094765,10.4840813 100.083012,10.6154188 100.062025,10.72265 L97.4234568,10.72265 C97.4352099,11.1100125 97.5611358,11.4051063 97.8054321,11.6095938 C98.0287407,11.7924688 98.3166914,11.8839063 98.669284,11.8839063 C99.0596543,11.8839063 99.4156049,11.8223938 99.7362963,11.6985375 L99.8739753,12.3036875 C99.498716,12.46495 99.0571358,12.5455813 98.5458765,12.5455813 C97.933037,12.5455813 97.450321,12.3668625 97.1010864,12.009425 C96.7501728,11.6519875 96.5763951,11.1723563 96.5763951,10.5705313 C96.5763951,9.9795125 96.7384198,9.4874125 97.0649877,9.0950625 C97.4058272,8.6761125 97.866716,8.4666375 98.4484938,8.4666375 C99.017679,8.4666375 99.4500247,8.6761125 99.7421728,9.0950625 C99.9780741,9.4275625 100.094765,9.83903125 100.094765,10.3278063 Z M99.2552593,10.1025375 C99.2619753,9.84401875 99.2040494,9.62124375 99.0848395,9.43338125 C98.9320494,9.1914875 98.6995062,9.070125 98.3846914,9.070125 C98.0975802,9.070125 97.863358,9.1881625 97.6845432,9.42506875 C97.5384691,9.6137625 97.452,9.83903125 97.4234568,10.1025375 L99.2552593,10.1025375 Z" id="download-on-the" fill="#FFFFFF"></path>
                    <path d="M23.3947979,18.0963497 C23.4227381,21.3329848 26.2557122,22.4029261 26.2904258,22.414656 C26.2734923,22.490063 25.8467682,23.9588234 24.7841913,25.4502059 C23.896876,26.7631251 22.9672271,28.0467195 21.4906261,28.0701794 C20.0563589,28.1028558 19.5737543,27.2348377 17.928665,27.2348377 C16.2683357,27.2348377 15.754404,28.0467195 14.3785574,28.1028558 C12.9722305,28.153965 11.8978001,26.7011238 10.9783112,25.3999345 C9.14018015,22.7430953 7.70929966,17.9128594 9.62786486,14.625953 C10.5575138,13.0139194 12.2525569,11.9758167 14.064441,11.9481674 C15.4724613,11.9196804 16.7788806,12.889079 17.6441823,12.889079 C18.4925505,12.889079 20.1080061,11.7294872 21.7734155,11.9029232 C22.4702289,11.9230318 24.4531414,12.1752262 25.7324671,14.0210215 C25.6291728,14.0821849 23.3702443,15.3959421 23.3947979,18.0963497 Z M20.6854383,10.1551571 C19.9132709,11.0566894 18.6779723,11.7462443 17.4748473,11.6574316 C17.3173658,10.4408657 17.9269717,9.14721711 18.6093916,8.3579574 C19.3807124,7.46229007 20.720152,6.77608656 21.7911957,6.72916667 C21.9317437,7.99349034 21.4254322,9.23938119 20.6854383,10.1551571 Z" fill="#FFFFFF"></path>
                </g>
            </g>
        </g>
    </g>
</svg>