<?xml version="1.0" encoding="UTF-8"?>
<svg width="114px" height="40px" viewBox="0 0 114 40" version="1.1" xmlns="http://www.w3.org/2000/svg" xmlns:xlink="http://www.w3.org/1999/xlink">
    <!-- Generator: Sketch 53.2 (72643) - https://sketchapp.com -->
    <title>Group 27</title>
    <desc>Created with Sketch.</desc>
    <g id="Welcome" stroke="none" stroke-width="1" fill="none" fill-rule="evenodd">
        <g id="Home_Info_v2@2x" transform="translate(-543.000000, -692.000000)">
            <g id="Group-27" transform="translate(544.000000, 693.000000)">
                <rect id="bg" stroke="#00BBBB" fill="#000000" stroke-linecap="square" x="-0.5" y="-0.5" width="113" height="38.6041667" rx="4.8"></rect>
                <path d="M23.6780361,19.3671831 C23.7059764,22.6038182 26.5389504,23.6737594 26.5736641,23.6854894 C26.5567306,23.7608964 26.1300065,25.2296567 25.0674295,26.7210392 C24.1801143,28.0339585 23.2504653,29.3175528 21.7738644,29.3410128 C20.3395972,29.3736891 19.8569925,28.505671 18.2119033,28.505671 C16.5515739,28.505671 16.0376423,29.3175528 14.6617957,29.3736891 C13.2554688,29.4247983 12.1810384,27.9719572 11.2615495,26.6707679 C9.4234184,24.0139287 7.99253791,19.1836928 9.91110311,15.8967864 C10.8407521,14.2847527 12.5357951,13.24665 14.3476793,13.2190008 C15.7556996,13.1905137 17.0621189,14.1599123 17.9274206,14.1599123 C18.7757888,14.1599123 20.3912444,13.0003205 22.0566538,13.1737566 C22.7534672,13.1938651 24.7363797,13.4460596 26.0157054,15.2918548 C25.912411,15.3530183 23.6534825,16.6667754 23.6780361,19.3671831 Z M20.9686766,11.4259904 C20.1965091,12.3275227 18.9612105,13.0170776 17.7580856,12.928265 C17.6006041,11.7116991 18.21021,10.4180504 18.8926299,9.62879073 C19.6639507,8.7331234 21.0033903,8.0469199 22.074434,8 C22.214982,9.26432367 21.7086704,10.5102145 20.9686766,11.4259904 Z" id="apple" fill="#FFFFFF"></path>
                <text id="Coming-Soon" font-family="OpenSans-Semibold, Open Sans" font-size="11.0399995" font-weight="500" line-spacing="13.5900002" fill="#FFFFFF">
                    <tspan x="34" y="30.0019997">Coming Soon</tspan>
                </text>
                <text id="iOS-app" font-family="OpenSans-Semibold, Open Sans" font-size="9.19999957" font-weight="500" line-spacing="13.5900002" fill="#FFFFFF">
                    <tspan x="34" y="16.0019997">iOS app</tspan>
                </text>
            </g>
        </g>
    </g>
</svg>