<?xml version="1.0" encoding="UTF-8"?>
<svg width="114px" height="40px" viewBox="0 0 114 40" version="1.1" xmlns="http://www.w3.org/2000/svg" xmlns:xlink="http://www.w3.org/1999/xlink">
    <!-- Generator: Sketch 53.2 (72643) - https://sketchapp.com -->
    <title>google play copy</title>
    <desc>Created with Sketch.</desc>
    <g id="Welcome" stroke="none" stroke-width="1" fill="none" fill-rule="evenodd">
        <g id="Home_Info_v2@2x" transform="translate(-783.000000, -644.000000)">
            <g id="Group-27" transform="translate(544.000000, 640.000000)">
                <g id="google-play-copy" transform="translate(240.000000, 0.000000)">
                    <rect id="bg" stroke="#00BBBB" stroke-width="0.8" fill="#000000" stroke-linecap="square" x="-0.4" y="4.6" width="112.8" height="38.4041667" rx="4.8"></rect>
                    <text id="GitHub" font-family="OpenSans-Semibold, Open Sans" font-size="14" font-weight="500" line-spacing="30.6" fill="#FFFFFF">
                        <tspan x="37" y="27">GitHub</tspan>
                    </text>
                    <text id="Learn-more" font-family="OpenSans-Semibold, Open Sans" font-size="8" font-weight="500" line-spacing="30.6" fill="#FFFFFF">
                        <tspan x="37" y="9">Learn more</tspan>
                    </text>
                    <path d="M27.5914955,19.1053428 C26.6525564,17.5347701 25.3789454,16.2913456 23.7703274,15.3747887 C22.1614699,14.458185 20.4050772,14 18.4999042,14 C16.5949707,14 14.8380033,14.4583252 13.2294811,15.3747887 C11.6207194,16.2912988 10.3471563,17.5347701 9.40821715,19.1053428 C8.46942168,20.6758686 8,22.390895 8,24.2503752 C8,26.4840328 8.66752405,28.4925949 10.0029073,30.2765758 C11.338147,32.060697 13.0630789,33.2952392 15.1775595,33.9803429 C15.423691,34.0249412 15.6058954,33.9935728 15.7243641,33.8870323 C15.8428808,33.7803515 15.9020673,33.6467434 15.9020673,33.486769 C15.9020673,33.4600755 15.8997209,33.2199269 15.8951718,32.7660428 C15.890479,32.3121587 15.8882763,31.9161964 15.8882763,31.5783429 L15.5738121,31.6314495 C15.3733155,31.6673058 15.1203842,31.6824992 14.8150183,31.6781983 C14.509796,31.6740376 14.1929376,31.6428094 13.8648739,31.5847474 C13.5366666,31.5271997 13.2313965,31.3937319 12.9488241,31.1846245 C12.6663953,30.9755171 12.4658987,30.7018029 12.347382,30.3639026 L12.2106689,30.056763 C12.1195428,29.8522837 11.9760778,29.6251313 11.7800824,29.3761472 C11.584087,29.1269294 11.3858888,28.9579792 11.1853922,28.8690163 L11.089669,28.8021187 C11.0258855,28.7576606 10.966699,28.7040397 10.9119659,28.6418171 C10.8572807,28.5795944 10.8163385,28.517325 10.7889959,28.4549621 C10.7616054,28.3925525 10.7843031,28.3413626 10.8573285,28.3012054 C10.9303539,28.2610481 11.0623264,28.2415539 11.2538206,28.2415539 L11.5271511,28.2814306 C11.7094512,28.3170999 11.9349441,28.4236405 12.203917,28.6017066 C12.4727463,28.7796326 12.6937379,29.0109456 12.8669398,29.2955523 C13.0766784,29.6604734 13.3293702,29.9385353 13.6257337,30.1298781 C13.9218577,30.3212209 14.2204239,30.4167287 14.5211449,30.4167287 C14.8218659,30.4167287 15.0815969,30.3944763 15.3004337,30.3502052 C15.5190311,30.3057003 15.7241247,30.2388028 15.9156189,30.1498866 C15.9976468,29.5534654 16.2209848,29.0952804 16.5854414,28.7750044 C16.0659794,28.7217108 15.598952,28.6414431 15.1841198,28.5347156 C14.769527,28.4278478 14.3410953,28.2544098 13.8991121,28.013934 C13.4568894,27.7737854 13.0900384,27.4755748 12.7984636,27.1198165 C12.5068408,26.7638711 12.267509,26.2965701 12.0808034,25.7183343 C11.894002,25.1398646 11.8005774,24.4725723 11.8005774,23.7162702 C11.8005774,22.6394117 12.1606764,21.7230417 12.8807309,20.9666462 C12.5434253,20.1570505 12.5752692,19.2494693 12.9763582,18.2439961 C13.2406863,18.163822 13.6326771,18.2239877 14.1521391,18.4241193 C14.6716969,18.6243444 15.0520994,18.7958657 15.2937297,18.9380756 C15.53536,19.0802386 15.7289612,19.2007103 15.8748204,19.2984153 C16.7226334,19.067149 17.5975496,18.9514925 18.4998085,18.9514925 C19.4020673,18.9514925 20.277175,19.067149 21.1250359,19.2984153 L21.6445458,18.9782328 C21.9998085,18.7645908 22.4193334,18.5688068 22.9021152,18.3908341 C23.3851842,18.2129549 23.7545731,18.1639622 24.0098986,18.2441364 C24.4198944,19.2496563 24.456431,20.1571907 24.1190297,20.9667864 C24.8390363,21.723182 25.199279,22.6397856 25.199279,23.7164105 C25.199279,24.4727125 25.1055191,25.1421086 24.9190051,25.7250193 C24.7322516,26.3080236 24.4908607,26.7748571 24.1947367,27.1265015 C23.8982775,27.4780993 23.5290802,27.7739724 23.0870969,28.0140742 C22.6450179,28.2543631 22.2164425,28.4278011 21.8018497,28.5346688 C21.3870654,28.6415366 20.920038,28.721851 20.400576,28.7752382 C20.8743553,29.1755014 21.1112928,29.8073114 21.1112928,30.6703877 L21.1112928,33.4863951 C21.1112928,33.6463694 21.1682765,33.7799308 21.2823398,33.8866583 C21.3962595,33.9931988 21.5761653,34.0245672 21.8222969,33.9799221 C23.9370648,33.294912 25.6619967,32.060323 26.9971884,30.2762018 C28.3322365,28.4922209 29,26.4836588 29,24.2500012 C28.9995211,22.3907548 28.52986,20.6758686 27.5914955,19.1053428 Z" id="Path" fill="#FFFFFF"></path>
                </g>
            </g>
        </g>
    </g>
</svg>