<?xml version="1.0" encoding="UTF-8"?>
<svg width="114px" height="40px" viewBox="0 0 114 40" version="1.1" xmlns="http://www.w3.org/2000/svg" xmlns:xlink="http://www.w3.org/1999/xlink">
    <!-- Generator: Sketch 53.2 (72643) - https://sketchapp.com -->
    <title>google play</title>
    <desc>Created with Sketch.</desc>
    <defs>
        <linearGradient x1="50%" y1="0%" x2="50%" y2="100%" id="linearGradient-1">
            <stop stop-color="#1E79AF" offset="0%"></stop>
            <stop stop-color="#63FFD3" offset="100%"></stop>
        </linearGradient>
        <linearGradient x1="84.7178118%" y1="29.3160098%" x2="5.24419544%" y2="77.0878974%" id="linearGradient-2">
            <stop stop-color="#DC4057" offset="0%"></stop>
            <stop stop-color="#9E36BB" offset="100%"></stop>
        </linearGradient>
        <linearGradient x1="50%" y1="0%" x2="50%" y2="97.8256537%" id="linearGradient-3">
            <stop stop-color="#FF9676" offset="0%"></stop>
            <stop stop-color="#FFD074" offset="100%"></stop>
        </linearGradient>
        <linearGradient x1="17.4435371%" y1="20.9131416%" x2="100%" y2="79.0868584%" id="linearGradient-4">
            <stop stop-color="#51C6AD" offset="0%"></stop>
            <stop stop-color="#D5FFA1" offset="100%"></stop>
        </linearGradient>
    </defs>
    <g id="Welcome" stroke="none" stroke-width="1" fill="none" fill-rule="evenodd">
        <g id="Home_Info_v2@2x" transform="translate(-663.000000, -644.000000)">
            <g id="Group-27" transform="translate(544.000000, 640.000000)">
                <g id="google-play" transform="translate(120.000000, 5.000000)">
                    <rect id="bg" stroke="#00BBBB" stroke-width="0.8" fill="#000000" stroke-linecap="square" x="-0.4" y="-0.4" width="112.8" height="38.4041667" rx="4.8"></rect>
                    <g transform="translate(8.369495, 15.454846)">
                        <path d="M0.700731983,-0.113046469 C0.385197698,-0.0145553394 0.180999856,0.304206593 0.180999856,0.786473504 L0.182944597,15.9647814 C0.182944597,16.4417114 0.38082203,16.7556215 0.687604979,16.86042 L9.19827933,8.36689425 L0.700731983,-0.113046469" id="left" fill="url(#linearGradient-1)"></path>
                        <path d="M0.687604979,16.86042 C0.908333123,16.9351374 1.18497258,16.9002046 1.48640749,16.735244 L11.8722987,11.0353731 L9.19827933,8.36689425 L0.687604979,16.86042" id="bottom" fill="url(#linearGradient-2)"></path>
                        <path d="M11.8737573,11.0353731 L15.4151313,9.09223533 C16.133227,8.69681528 16.133227,8.05346928 15.4151313,7.65901958 L11.8606302,5.7086041 L9.19827933,8.36543872 L11.8737573,11.0353731" id="right" fill="url(#linearGradient-3)"></path>
                        <path d="M11.8601441,5.7086041 L1.48640749,0.0164960513 C1.19226536,-0.14409786 0.920973942,-0.181456564 0.701218169,-0.113046469 L9.19827933,8.36543872 L11.8601441,5.7086041" id="top" fill="url(#linearGradient-4)"></path>
                    </g>
                    <path d="M38.8179627,27.5348072 L36.6184602,28.0374516 C35.7272825,28.177668 34.9270214,28.3009032 34.0796003,28.3009032 C29.8371471,28.3009032 28.2205808,25.1846051 28.2205808,22.7456153 C28.2205808,19.7671077 30.511,17.0054747 34.4335433,17.0054747 C35.2634616,17.0054747 36.061778,17.1272543 36.7891112,17.325207 C37.9418567,17.6483355 38.4810362,18.0466666 38.8179627,18.2800372 L37.5402676,19.4910415 L37.0015742,19.6113656 L37.3856606,19.0005265 C36.8654423,18.4935155 35.9091158,17.5576072 34.0941859,17.5576072 C31.6676349,17.5576072 29.8371471,19.3983725 29.8371471,22.0857733 C29.8371471,24.9720971 31.9272578,27.6871531 35.2795058,27.6871531 C36.2645173,27.6871531 36.7716086,27.4896856 37.2320261,27.305318 L37.2320261,24.8309103 L34.9095187,24.955601 L36.14054,24.295759 L39.3999265,24.295759 L39.0012545,24.6785644 C38.8938076,24.7697779 38.879222,24.8008293 38.8490785,24.9230941 C38.8330344,25.0628254 38.8179627,25.5072484 38.8179627,25.6634757 L38.8179627,27.5348072 Z M43.8621355,28.1029506 C41.2537512,28.1029506 39.8608302,26.0763622 39.8608302,24.2414191 C39.8608302,22.0974176 41.6154731,20.2629596 44.1096039,20.2629596 C46.5201108,20.2629596 48.0292301,22.1473909 48.0292301,24.1259467 C48.0292301,26.0584106 46.5380996,28.1029506 43.8621355,28.1029506 Z M45.9143239,26.7784147 C46.308134,26.2544225 46.4063434,25.6004026 46.4063434,24.9628787 C46.4063434,23.5209298 45.7159602,20.770941 43.6832193,20.770941 C43.1401503,20.770941 42.6009708,20.9819934 42.2071607,21.3264698 C41.565396,21.899465 41.4516286,22.6194691 41.4516286,23.3258882 C41.4516286,24.9434716 42.2562654,27.6114653 44.2413601,27.6114653 C44.8816662,27.6114653 45.5355855,27.3014366 45.9143239,26.7784147 Z M52.593538,28.1029506 C49.9856399,28.1029506 48.590288,26.0763622 48.590288,24.2414191 C48.590288,22.0974176 50.3444447,20.2629596 52.8395478,20.2629596 C55.2515133,20.2629596 56.7620911,22.1473909 56.7620911,24.1259467 C56.7620911,26.0584106 55.269016,28.1029506 52.593538,28.1029506 Z M54.6452402,26.7784147 C55.0419674,26.2544225 55.1382321,25.6004026 55.1382321,24.9628787 C55.1382321,23.5209298 54.4497937,20.770941 52.415108,20.770941 C51.8739837,20.770941 51.32897,20.9819934 50.9361322,21.3264698 C50.2953399,21.899465 50.1810864,22.6194691 50.1810864,23.3258882 C50.1810864,24.9434716 50.9823198,27.6114653 52.9708179,27.6114653 C53.6125825,27.6114653 54.2674742,27.3014366 54.6452402,26.7784147 Z M62.7655077,21.0664144 C63.1423013,21.3754727 63.928463,22.0314334 63.928463,23.2754297 C63.928463,24.4878895 63.2434279,25.0594291 62.5525585,25.6004026 C62.3405817,25.8133957 62.0926272,26.0443404 62.0926272,26.4014314 C62.0926272,26.7638594 62.3405817,26.9603565 62.5190117,27.1068802 L63.1116717,27.5634327 C63.8321983,28.1703903 64.4890347,28.7268895 64.4890347,29.8573542 C64.4890347,31.3973091 62.9954734,32.9503638 60.1731675,32.9503638 C57.7957212,32.9503638 56.646379,31.8203843 56.646379,30.6088949 C56.646379,30.0194036 56.9405212,29.1844123 57.9109471,28.6123875 C58.9280468,27.9918448 60.3058961,27.9088794 61.0439254,27.8603616 C60.8134736,27.5634327 60.5504473,27.2524336 60.5504473,26.7449374 C60.5504473,26.4674156 60.6340712,26.3019699 60.7147779,26.1069284 C60.5353756,26.1239096 60.3545146,26.141376 60.190184,26.141376 C58.4501266,26.141376 57.4665737,24.8459508 57.4665737,23.5694476 C57.4665737,22.8164513 57.8107929,21.9809749 58.5177064,21.3754727 C59.453127,20.6069508 60.5684362,20.4744972 61.454752,20.4744972 L64.8356849,20.4744972 L63.7845522,21.0664144 L62.7655077,21.0664144 Z M61.6030386,28.3348657 C61.4683652,28.3173993 61.3876585,28.3173993 61.2252725,28.3173993 C61.0764998,28.3173993 60.190184,28.349421 59.5036903,28.5793954 C59.1405098,28.711849 58.0908357,29.1033876 58.0908357,30.2663592 C58.0908357,31.4269049 59.2241337,32.2638369 60.977318,32.2638369 C62.5525585,32.2638369 63.3887973,31.5103555 63.3887973,30.4958484 C63.3887973,29.6608571 62.847673,29.2203155 61.6030386,28.3348657 Z M62.0746383,25.2239045 C62.4538629,24.8459508 62.4869235,24.3238993 62.4869235,24.0274556 C62.4869235,22.8499286 61.7834133,21.0159559 60.4196634,21.0159559 C59.9942513,21.0159559 59.5333476,21.228949 59.2717799,21.5583848 C58.994168,21.899465 58.9110303,22.3419473 58.9110303,22.7674484 C58.9110303,23.8639506 59.5518226,25.6823977 60.9612739,25.6823977 C61.3725867,25.6823977 61.8150154,25.4829895 62.0746383,25.2239045 Z M67.2495951,26.6653682 C67.2495951,27.3014366 67.3633624,27.4004129 67.902542,27.4503862 C68.1835571,27.4833783 68.4635999,27.4979337 68.7407255,27.5309258 L68.1339662,27.891413 L65.242622,27.891413 C65.6218466,27.4004129 65.6869954,27.3514099 65.6869954,27.0243999 L65.6869954,26.6590609 L65.680675,16.92445 L64.4039523,16.92445 L65.6330288,16.3335032 L67.9793593,16.3335032 C67.4708094,16.627521 67.3186334,16.8065517 67.2534846,17.3795469 L67.2495951,26.6653682 Z M75.3139513,26.7919997 L74.5292482,27.5309258 C74.347901,27.6303872 74.1675263,27.7458596 73.9876377,27.8278547 C73.4426239,28.0748103 72.8883726,28.1369131 72.3958669,28.1369131 C71.8717591,28.1369131 71.0501059,28.1029506 70.2119223,27.4979337 C69.0475085,26.6794384 68.5384724,25.2724223 68.5384724,24.0463775 C68.5384724,21.5079263 70.6091358,20.2629596 72.2981436,20.2629596 C72.8883726,20.2629596 73.4946458,20.4104537 73.9876377,20.7214528 C74.8073462,21.2624263 75.019323,21.9654492 75.1369798,22.3419473 L71.2800715,23.8969427 L70.016962,23.9949486 C70.4258439,26.0763622 71.8367537,27.2868812 73.3959501,27.2868812 C74.174819,27.2868812 74.7528934,27.0331332 75.2833216,26.7716222 C75.2833216,26.7716222 75.3897962,26.7163119 75.3139513,26.7919997 Z M72.9870683,22.651976 C73.3001716,22.5384444 73.4630437,22.4404384 73.4630437,22.2124048 C73.4630437,21.5583848 72.7216111,20.8029627 71.8367537,20.8029627 C71.1813759,20.8029627 69.9508408,21.3123996 69.9508408,23.0813585 C69.9508408,23.3574248 69.9839014,23.6514426 70.0004317,23.9454605 L72.9870683,22.651976 Z M80.0430761,26.8618653 L80.0430761,31.0319701 L79.2131577,31.0319701 L79.2131577,20.4206425 L80.0430761,20.4206425 L80.0430761,21.6292208 C80.5837142,20.8480843 81.5716428,20.2289972 82.7190402,20.2289972 C84.7770627,20.2289972 86.1631771,21.7869037 86.1631771,24.2530633 C86.1631771,26.7027269 84.7770627,28.2931404 82.7190402,28.2931404 C81.6358193,28.2931404 80.6653933,27.7356709 80.0430761,26.8618653 Z M85.2715132,24.2530633 C85.2715132,22.3943465 84.3006011,20.9766564 82.5790188,20.9766564 C81.5098972,20.9766564 80.4874495,21.815044 80.0430761,22.5462072 L80.0430761,25.9429382 C80.4874495,26.675557 81.5098972,27.5445107 82.5790188,27.5445107 C84.3006011,27.5445107 85.2715132,26.1146912 85.2715132,24.2530633 Z M87.2964752,17.4906527 L88.1259073,17.4906527 L88.1259073,28.1019802 L87.2964752,28.1019802 L87.2964752,17.4906527 Z M95.0141812,28.0791769 C94.9587561,27.8128142 94.9169442,27.577988 94.8863145,27.3819761 C94.8610328,27.1864494 94.8464473,26.9865561 94.8464473,26.7832665 C94.5620289,27.2000344 94.1589812,27.5469366 93.6441109,27.8200918 C93.1287545,28.0951877 92.6391658,28.2300672 91.9677439,28.2300672 C91.1592177,28.2300672 90.5315524,28.0316294 90.0837757,27.6289317 C89.6374576,27.2267192 89.4128399,26.6818643 89.4128399,25.9924264 C89.4128399,25.3039588 89.7380979,24.7450338 90.3866692,24.317592 C91.0352404,23.8882095 91.8734239,23.6747312 92.9109434,23.6747312 L94.8464473,23.6747312 L94.8464473,22.7203861 C94.8464473,22.1706794 94.6587797,21.7383859 94.2839308,21.4249609 C93.9076234,21.1110507 93.3796261,20.9523975 92.6950772,20.9523975 C92.0693566,20.9523975 91.5617791,21.0974658 91.1752618,21.3798393 C90.7921477,21.6680351 90.5991322,22.0251261 90.5991322,22.4554789 L89.7497664,22.4554789 L89.7322637,22.4142388 C89.701634,21.8339659 89.9675774,21.3250142 90.533011,20.885443 C91.0960136,20.4463569 91.8335567,20.2256009 92.7412648,20.2256009 C93.6460557,20.2256009 94.3782508,20.4429607 94.9300712,20.8767098 C95.4814053,21.3060923 95.7580448,21.9266349 95.7580448,22.7378525 L95.7580448,26.5270925 C95.7580448,26.7992774 95.7711718,27.0622438 95.8052048,27.3184178 C95.8402101,27.575077 95.8961214,27.8312509 95.9705078,28.0791769 L95.0141812,28.0791769 Z M92.0693566,27.4756155 C92.7743254,27.4756155 93.2809305,27.3184178 93.7987179,27.0074187 C94.313102,26.6983603 94.6631554,26.2951774 94.8464473,25.8070884 L94.8464473,24.3321473 L92.9017059,24.3321473 C92.1588147,24.3321473 91.5437903,24.4961375 91.0600359,24.8270289 C90.5753091,25.1569499 90.3297855,25.5562514 90.3297855,26.0205667 C90.3297855,26.4586824 90.4853648,26.8089809 90.7945787,27.0743733 C91.1047649,27.3426767 91.5287185,27.4756155 92.0693566,27.4756155 Z M97.4383013,30.3459284 C97.615759,30.4250124 97.9186524,30.4735302 98.1106956,30.4735302 C98.6182731,30.4735302 98.9717299,30.2663592 99.2892089,29.5347108 L99.8945096,28.1660237 L96.6253994,20.4206425 L97.5510963,20.4206425 L100.355413,27.1325946 L103.132504,20.4206425 L104.071328,20.4206425 L100.084122,29.79137 C99.6703782,30.7568741 99.019376,31.2211895 98.1252812,31.2211895 C97.8569069,31.2211895 97.502964,31.173642 97.295849,31.1100837 L97.4383013,30.3459284 Z" id="logotype" fill="#FFFFFF"></path>
                    <path d="M28.1587103,8.74141262 C28.1587103,7.09356435 29.395839,6.03356793 30.9346943,6.03356793 C31.9657174,6.03356793 32.639524,6.52042105 33.0601577,7.11660775 L32.3065843,7.54854893 C32.0212074,7.15583056 31.5213024,6.85038293 30.9346943,6.85038293 C29.8883123,6.85038293 29.1104621,7.63483911 29.1104621,8.74141262 C29.1104621,9.83180672 29.8883123,10.6324423 30.9346943,10.6324423 C31.474235,10.6324423 31.9498632,10.3892609 32.1876772,10.1617686 L32.1876772,9.35328845 L30.6017546,9.35328845 L30.6017546,8.54480829 L33.1077205,8.54480829 L33.1077205,10.4990848 C32.5924566,11.0722281 31.8468104,11.4566116 30.9346943,11.4566116 C29.395839,11.4566116 28.1587103,10.3819066 28.1587103,8.74141262 Z M34.2551734,11.3546323 L34.2551734,6.11985811 L37.879361,6.11985811 L37.879361,6.92882855 L35.1826484,6.92882855 L35.1826484,8.27809319 L37.8238711,8.27809319 L37.8238711,9.08657334 L35.1826484,9.08657334 L35.1826484,10.5461521 L37.879361,10.5461521 L37.879361,11.3546323 L34.2551734,11.3546323 Z M40.4467623,11.3546323 L40.4467623,6.92882855 L38.8449853,6.92882855 L38.8449853,6.11985811 L42.9765096,6.11985811 L42.9765096,6.92882855 L41.3747326,6.92882855 L41.3747326,11.3546323 L40.4467623,11.3546323 Z M46.2013677,6.11985811 L47.1288426,6.11985811 L47.1288426,11.3546323 L46.2013677,11.3546323 L46.2013677,6.11985811 Z M49.713089,11.3546323 L49.713089,6.92882855 L48.1113121,6.92882855 L48.1113121,6.11985811 L52.2428364,6.11985811 L52.2428364,6.92882855 L50.6410594,6.92882855 L50.6410594,11.3546323 L49.713089,11.3546323 Z M55.2378075,8.74141262 C55.2378075,7.17936424 56.3555337,6.03356793 57.9424473,6.03356793 C59.5199474,6.03356793 60.6465916,7.17936424 60.6465916,8.74141262 C60.6465916,10.3029707 59.5199474,11.448767 57.9424473,11.448767 C56.3555337,11.448767 55.2378075,10.3029707 55.2378075,8.74141262 Z M59.6948398,8.74141262 C59.6948398,7.6583728 59.0046835,6.85038293 57.9424473,6.85038293 C56.871293,6.85038293 56.1895593,7.6583728 56.1895593,8.74141262 C56.1895593,9.81611759 56.871293,10.6324423 57.9424473,10.6324423 C59.0046835,10.6324423 59.6948398,9.81611759 59.6948398,8.74141262 Z M65.4177367,11.3546323 L62.657607,7.61130543 L62.657607,11.3546323 L61.730132,11.3546323 L61.730132,6.11985811 L62.6818838,6.11985811 L65.3860282,9.74600682 L65.3860282,6.11985811 L66.3139985,6.11985811 L66.3139985,11.3546323 L65.4177367,11.3546323 Z" id="get-it-on" fill="#FFFFFF"></path>
                </g>
            </g>
        </g>
    </g>
</svg>