<?xml version="1.0" encoding="UTF-8"?>
<svg width="48px" height="45px" viewBox="0 0 48 45" version="1.1" xmlns="http://www.w3.org/2000/svg" xmlns:xlink="http://www.w3.org/1999/xlink">
    <!-- Generator: Sketch 52.6 (67491) - http://www.bohemiancoding.com/sketch -->
    <title>dapps</title>
    <desc>Created with Sketch.</desc>
    <defs>
        <linearGradient x1="0%" y1="0%" x2="100%" y2="100%" id="linearGradient-1">
            <stop stop-color="#27E1AF" offset="0%"></stop>
            <stop stop-color="#2C80FF" offset="100%"></stop>
        </linearGradient>
    </defs>
    <g id="Welcome" stroke="none" stroke-width="1" fill="none" fill-rule="evenodd">
        <g id="Home_v4@2x" transform="translate(-579.000000, -2168.000000)" fill="url(#linearGradient-1)" fill-rule="nonzero">
            <g id="Group-23" transform="translate(0.000000, 1781.000000)">
                <g id="Text_box3" transform="translate(211.000000, 254.000000)">
                    <g id="Group-5" transform="translate(0.000000, 104.000000)">
                        <g id="Group-12" transform="translate(244.000000, 1.000000)">
                            <g id="dapps" transform="translate(124.000000, 28.000000)">
                                <path d="M23.9212939,0 C23.5999562,0 23.2782529,0.0793627487 22.987922,0.239707894 L0.974795497,12.3860476 C0.371228831,12.7178955 0,13.3422997 0,14.0210522 C0,14.6998047 0.373056345,15.3242089 0.974795497,15.6560568 L23.1478294,27.8849404 C23.4371857,28.0443257 23.7571223,28.1248882 24.076998,28.1248882 C24.4007724,28.1248882 24.7205263,28.0443257 25.0118343,27.8849404 L47.0250218,15.7385988 C47.6286493,15.406751 48,14.7823467 48,14.1035943 C48,13.4248418 47.6267609,12.8004375 47.0250218,12.4685897 L24.8519245,0.239707894 C24.5635429,0.08032254 24.2426316,0.000239947842 23.9212939,0 Z M23.9212939,4.0235054 L42.196793,14.1035943 L24.0774853,24.0992833 L5.80198865,14.0192526 L23.9212939,4.0235054 Z M1.92954927,20.5821278 C1.25452684,20.5730098 0.59674395,20.9209941 0.245983266,21.5435988 C-0.270106439,22.4455027 0.0575666632,23.5874145 0.975282834,24.0936445 L23.1483168,36.3224063 C23.437673,36.4817916 23.7576096,36.5623541 24.0774853,36.5623541 C24.4012597,36.5623541 24.7211355,36.4818516 25.0067782,36.3243858 L47.0198438,24.1780461 C47.9395093,23.6736158 48.2652331,22.5299044 47.7491434,21.6261409 C47.2369524,20.7223773 46.0791619,20.3998874 45.1576688,20.907977 L24.0756578,32.5387287 L2.83374184,20.8236353 C2.5468832,20.6642499 2.23638872,20.5862669 1.92954927,20.5821278 Z M1.92954927,29.0200136 C1.25452684,29.0113155 0.59674395,29.3598398 0.245983266,29.9811847 C-0.270106439,30.8830886 0.0575666632,32.0248804 0.975282834,32.5311104 L23.1483168,44.7599922 C23.437673,44.9193775 23.7576096,45 24.0774853,45 C24.4012597,45 24.7211355,44.9193175 25.0067782,44.7617918 L47.0198438,32.6154521 C47.9395093,32.1110817 48.2652331,30.9673703 47.7491434,30.0636068 C47.2369524,29.1598432 46.0791619,28.8372933 45.1576688,29.3454429 L24.0756578,40.9761947 L2.83374184,29.2611012 C2.5468832,29.1017159 2.23638872,29.0239728 1.92954927,29.0200136 Z" id="Shape"></path>
                            </g>
                        </g>
                    </g>
                </g>
            </g>
        </g>
    </g>
</svg>