<?xml version="1.0" encoding="UTF-8"?>
<svg width="48px" height="41px" viewBox="0 0 48 41" version="1.1" xmlns="http://www.w3.org/2000/svg" xmlns:xlink="http://www.w3.org/1999/xlink">
    <!-- Generator: Sketch 52.6 (67491) - http://www.bohemiancoding.com/sketch -->
    <title>Group</title>
    <desc>Created with Sketch.</desc>
    <defs>
        <linearGradient x1="0%" y1="0%" x2="100%" y2="100%" id="linearGradient-1">
            <stop stop-color="#27E1AF" offset="0%"></stop>
            <stop stop-color="#2C80FF" offset="100%"></stop>
        </linearGradient>
    </defs>
    <g id="Welcome" stroke="none" stroke-width="1" fill="none" fill-rule="evenodd">
        <g id="Home_v4@2x" transform="translate(-334.000000, -2170.000000)" fill="url(#linearGradient-1)">
            <g id="Group-23" transform="translate(0.000000, 1781.000000)">
                <g id="Text_box3" transform="translate(211.000000, 254.000000)">
                    <g id="Group-5" transform="translate(0.000000, 104.000000)">
                        <g id="Group-2">
                            <g id="Group" transform="translate(123.000000, 31.000000)">
                                <path d="M44.15,0 L3.85,0 C1.85,0 0.25,1.6 0.25,3.6 L0.25,37.4 C0.25,39.4 1.85,41 3.85,41 L44.15,41 C46.15,41 47.75,39.4 47.75,37.4 L47.75,3.6 C47.75,1.6 46.15,0 44.15,0 Z M15.65,3.7 C16.5,3.7 17.2,4.4 17.2,5.25 C17.2,6.1 16.5,6.8 15.65,6.8 C14.8,6.8 14.1,6.1 14.1,5.25 C14.1,4.4 14.8,3.7 15.65,3.7 Z M10.95,3.7 C11.8,3.7 12.5,4.4 12.5,5.25 C12.5,6.1 11.8,6.8 10.95,6.8 C10.1,6.8 9.4,6.1 9.4,5.25 C9.4,4.4 10.1,3.7 10.95,3.7 Z M6.25,3.7 C7.1,3.7 7.8,4.4 7.8,5.25 C7.8,6.1 7.1,6.8 6.25,6.8 C5.4,6.8 4.7,6.1 4.7,5.25 C4.7,4.4 5.35,3.7 6.25,3.7 Z M44.4,37.4 C44.4,37.55 44.3,37.65 44.15,37.65 L3.85,37.65 C3.7,37.65 3.6,37.55 3.6,37.4 L3.6,10.55 L44.4,10.55 L44.4,37.4 Z" id="Shape" fill-rule="nonzero"></path>
                                <path d="M10.8,32.7 C11.2,33.2 11.8,33.4 12.35,33.4 C12.8,33.4 13.3,33.25 13.7,32.9 L22.25,25.65 C22.7,25.25 22.95,24.7 22.95,24.1 C22.95,23.5 22.7,22.95 22.25,22.55 L13.65,15.3 C12.8,14.55 11.5,14.65 10.75,15.55 C10,16.4 10.1,17.7 11,18.45 L17.7,24.15 L11,29.8 C10.15,30.55 10.05,31.85 10.8,32.7 Z" id="Path"></path>
                                <path d="M25.25,33.05 L35.65,33.05 C36.7,33.05 37.55,32.2 37.55,31.15 C37.55,30.1 36.7,29.25 35.65,29.25 L25.25,29.25 C24.2,29.25 23.35,30.1 23.35,31.15 C23.35,32.2 24.2,33.05 25.25,33.05 Z" id="Path"></path>
                            </g>
                        </g>
                    </g>
                </g>
            </g>
        </g>
    </g>
</svg>