<?xml version="1.0" encoding="UTF-8"?>
<svg width="45px" height="45px" viewBox="0 0 45 45" version="1.1" xmlns="http://www.w3.org/2000/svg" xmlns:xlink="http://www.w3.org/1999/xlink">
    <!-- Generator: Sketch 52.6 (67491) - http://www.bohemiancoding.com/sketch -->
    <title>Group</title>
    <desc>Created with Sketch.</desc>
    <defs>
        <linearGradient x1="0%" y1="0%" x2="100%" y2="100%" id="linearGradient-1">
            <stop stop-color="#27E1AF" offset="0%"></stop>
            <stop stop-color="#2C80FF" offset="100%"></stop>
        </linearGradient>
    </defs>
    <g id="Welcome" stroke="none" stroke-width="1" fill="none" fill-rule="evenodd">
        <g id="Home_v4@2x" transform="translate(-818.000000, -2169.000000)" fill="url(#linearGradient-1)" fill-rule="nonzero">
            <g id="Group-23" transform="translate(0.000000, 1781.000000)">
                <g id="Text_box3" transform="translate(211.000000, 254.000000)">
                    <g id="Group-5" transform="translate(0.000000, 104.000000)">
                        <g id="Group-13" transform="translate(482.000000, 1.000000)">
                            <g id="Group" transform="translate(125.000000, 29.000000)">
                                <path d="M11.1671037,7.74612057 C11.4710511,8.05561169 11.9486827,8.0821395 12.2960512,7.825704 C15.1792095,5.73000699 18.6963153,4.49204252 22.5,4.49204252 C26.3036847,4.49204252 29.8207905,5.7388496 32.7039488,7.825704 C33.0513173,8.0821395 33.5289489,8.05561169 33.8328963,7.74612057 L35.7347387,5.80959043 C36.116844,5.42051588 36.0821072,4.77500583 35.6565808,4.4478295 C31.974475,1.65356683 27.4239481,0 22.5,0 C17.5760519,0 13.025525,1.65356683 9.3434192,4.4478295 C8.91789282,4.77500583 8.88315597,5.42051588 9.26526129,5.80959043 L11.1671037,7.74612057 Z" id="Path"></path>
                                <path d="M40.5521705,9.3434192 C40.2249942,8.91789282 39.5794841,8.88315597 39.1904096,9.26526129 L37.2538794,11.1671037 C36.9443883,11.4710511 36.9178605,11.9486827 37.174296,12.2960512 C39.269993,15.1792095 40.5079575,18.6963153 40.5079575,22.5 C40.5079575,26.3036847 39.2611504,29.8207905 37.174296,32.7039488 C36.9178605,33.0513173 36.9443883,33.5289489 37.2538794,33.8328963 L39.1904096,35.7347387 C39.5794841,36.116844 40.2249942,36.0821072 40.5521705,35.6565808 C43.3464332,31.974475 45,27.4239481 45,22.5 C45,17.5760519 43.3464332,13.025525 40.5521705,9.3434192 Z" id="Path"></path>
                                <path d="M33.8328963,37.2538794 C33.5289489,36.9443883 33.0513173,36.9178605 32.7039488,37.174296 C29.8207905,39.269993 26.3036847,40.5079575 22.5,40.5079575 C18.6963153,40.5079575 15.1792095,39.2611504 12.2960512,37.174296 C11.9486827,36.9178605 11.4710511,36.9443883 11.1671037,37.2538794 L9.26526129,39.1904096 C8.88315597,39.5794841 8.91789282,40.2249942 9.3434192,40.5521705 C13.025525,43.3464332 17.5760519,45 22.5,45 C27.4239481,45 31.974475,43.3464332 35.6565808,40.5521705 C36.0821072,40.2249942 36.116844,39.5706415 35.7347387,39.1904096 L33.8328963,37.2538794 Z" id="Path"></path>
                                <path d="M7.74612057,11.1671037 L5.80959043,9.26526129 C5.42051588,8.88315597 4.77500583,8.91789282 4.4478295,9.3434192 C1.65356683,13.025525 0,17.5760519 0,22.5 C0,27.4239481 1.65356683,31.974475 4.4478295,35.6565808 C4.77500583,36.0821072 5.42935848,36.116844 5.80959043,35.7347387 L7.74612057,33.8328963 C8.05561169,33.5289489 8.0821395,33.0513173 7.825704,32.7039488 C5.7388496,29.8207905 4.49204252,26.3036847 4.49204252,22.5 C4.49204252,18.6963153 5.7388496,15.1792095 7.825704,12.2960512 C8.0821395,11.9486827 8.05561169,11.4710511 7.74612057,11.1671037 Z" id="Path"></path>
                                <path d="M29.7702536,13.0765004 L9.53640126,22.3545359 C8.78893077,22.6750656 8.83238836,23.7406103 9.6059334,24.0004992 L17.6542784,25.8197219 C17.915024,25.9063515 18.1236204,26.1142627 18.2105356,26.3741516 L20.5920113,34.3960571 C20.8527568,35.167061 21.9218135,35.2103759 22.2433996,34.4653609 L30.9262254,14.2286748 C31.23912,13.5009857 30.5003411,12.7559707 29.7702536,13.0765004 Z" id="Path"></path>
                            </g>
                        </g>
                    </g>
                </g>
            </g>
        </g>
    </g>
</svg>