<?xml version="1.0" encoding="UTF-8"?>
<svg width="37px" height="57px" viewBox="0 0 37 57" version="1.1" xmlns="http://www.w3.org/2000/svg" xmlns:xlink="http://www.w3.org/1999/xlink">
    <!-- Generator: Sketch 52.6 (67491) - http://www.bohemiancoding.com/sketch -->
    <title>Lightbulb</title>
    <desc>Created with Sketch.</desc>
    <defs>
        <linearGradient x1="0%" y1="0%" x2="100%" y2="100%" id="linearGradient-1">
            <stop stop-color="#27E1AF" offset="0%"></stop>
            <stop stop-color="#2C80FF" offset="100%"></stop>
        </linearGradient>
    </defs>
    <g id="Welcome" stroke="none" stroke-width="1" fill="none" fill-rule="evenodd">
        <g id="Home_v4@2x" transform="translate(-1059.000000, -2162.000000)" fill="url(#linearGradient-1)" fill-rule="nonzero">
            <g id="Group-23" transform="translate(0.000000, 1781.000000)">
                <g id="Text_box3" transform="translate(211.000000, 254.000000)">
                    <g id="Group-5" transform="translate(0.000000, 104.000000)">
                        <g id="Group-13-Copy" transform="translate(720.000000, 1.000000)">
                            <g id="Lightbulb" transform="translate(128.000000, 22.000000)">
                                <g id="Group">
                                    <path d="M21.3461538,49.8324896 L15.6538462,49.8324896 C14.8679025,49.8324896 14.2307692,50.4658429 14.2307692,51.2471238 L14.2307692,52.6617579 C14.2307692,55.0056005 16.142169,56.9056604 18.5,56.9056604 C20.857831,56.9056604 22.7692308,55.0056005 22.7692308,52.6617579 L22.7692308,51.2471238 C22.7692308,50.4658429 22.1320975,49.8324896 21.3461538,49.8324896 Z M18.5,54.0763921 C17.7140563,54.0763921 17.0769231,53.4430388 17.0769231,52.6617579 L19.9230769,52.6617579 C19.9230769,53.4430388 19.2859437,54.0763921 18.5,54.0763921 Z" id="Shape"></path>
                                    <path d="M19.2542308,0.320294524 C11.1556991,-0.00453572917 3.7874523,4.94877128 1.07505617,12.5412522 C-1.63733996,20.1337332 0.937774694,28.5972587 7.42846154,33.4227335 C8.98418817,34.5238045 9.92370522,36.2920002 9.96153846,38.1900506 L9.96153846,38.5154165 C9.96153846,39.2966973 10.5986717,39.9300506 11.3846154,39.9300506 L25.6153846,39.9300506 C26.4013283,39.9300506 27.0384615,39.2966973 27.0384615,38.5154165 L27.0384615,38.1900506 C27.0537368,36.3114603 27.9746674,34.5541847 29.5146154,33.4651726 C34.2172555,30.0009922 36.9933648,24.5289317 37,18.7105384 L37,18.3568799 C36.7027015,8.67229658 28.9876113,0.830772187 19.2542308,0.320294524 Z M27.7926923,31.1876116 C25.8481677,32.5922101 24.5716025,34.731075 24.2634615,37.1007823 L12.8076923,37.1007823 C12.4670275,34.7171474 11.1677407,32.573025 9.20730769,31.1593189 C3.72861943,27.0835597 1.54807882,19.9426589 3.82318138,13.527218 C6.09828394,7.11177715 12.3016644,2.90888566 19.1403846,3.14956282 C27.3774369,3.58012686 33.9060743,10.2176691 34.1538462,18.4134653 C34.2322952,23.4400219 31.876228,28.1978839 27.8211538,31.2017579 L27.7926923,31.1876116 Z" id="Shape"></path>
                                    <path d="M21.3461538,39.9300506 L15.6538462,39.9300506 C14.8679025,39.9300506 14.2307692,39.2966973 14.2307692,38.5154165 L14.2307692,22.9544409 C14.2307692,22.17316 14.8679025,21.5398067 15.6538462,21.5398067 L21.3461538,21.5398067 C22.1320975,21.5398067 22.7692308,22.17316 22.7692308,22.9544409 L22.7692308,38.5154165 C22.7692308,39.2966973 22.1320975,39.9300506 21.3461538,39.9300506 Z M17.0769231,37.1007823 L19.9230769,37.1007823 L19.9230769,24.369075 L17.0769231,24.369075 L17.0769231,37.1007823 Z" id="Shape"></path>
                                    <path d="M24.1923077,24.369075 L21.3461538,24.369075 C20.5602102,24.369075 19.9230769,23.7357217 19.9230769,22.9544409 L19.9230769,20.1251726 C19.9230769,17.78133 21.8344766,15.8812701 24.1923077,15.8812701 C26.5501387,15.8812701 28.4615385,17.78133 28.4615385,20.1251726 C28.4615385,22.4690152 26.5501387,24.369075 24.1923077,24.369075 Z M22.7692308,21.5398067 L24.1923077,21.5398067 C24.9782514,21.5398067 25.6153846,20.9064534 25.6153846,20.1251726 C25.6153846,19.3438917 24.9782514,18.7105384 24.1923077,18.7105384 C23.406364,18.7105384 22.7692308,19.3438917 22.7692308,20.1251726 L22.7692308,21.5398067 Z" id="Shape"></path>
                                    <path d="M15.6538462,24.369075 L12.8076923,24.369075 C10.4498613,24.369075 8.53846154,22.4690152 8.53846154,20.1251726 C8.53846154,17.78133 10.4498613,15.8812701 12.8076923,15.8812701 C15.1655234,15.8812701 17.0769231,17.78133 17.0769231,20.1251726 L17.0769231,22.9544409 C17.0769231,23.7357217 16.4397898,24.369075 15.6538462,24.369075 Z M12.8076923,18.7105384 C12.0217486,18.7105384 11.3846154,19.3438917 11.3846154,20.1251726 C11.3846154,20.9064534 12.0217486,21.5398067 12.8076923,21.5398067 L14.2307692,21.5398067 L14.2307692,20.1251726 C14.2307692,19.3438917 13.593636,18.7105384 12.8076923,18.7105384 Z" id="Shape"></path>
                                    <path d="M25.6153846,41.3446848 L11.3846154,41.3446848 C10.5986717,41.3446848 9.96153846,41.978038 9.96153846,42.7593189 L9.96153846,47.0032214 C9.96153846,47.7845022 10.5986717,48.4178555 11.3846154,48.4178555 L25.6153846,48.4178555 C26.4013283,48.4178555 27.0384615,47.7845022 27.0384615,47.0032214 L27.0384615,42.7593189 C27.0384615,41.978038 26.4013283,41.3446848 25.6153846,41.3446848 Z M12.8076923,45.5885872 L12.8076923,44.1739531 L24.1923077,44.1739531 L24.1923077,45.5885872 L12.8076923,45.5885872 Z" id="Shape"></path>
                                    <path d="M25.6153846,45.5885872 L11.3846154,45.5885872 C10.5986717,45.5885872 9.96153846,46.2219405 9.96153846,47.0032214 C9.96153846,50.1283448 12.5100714,52.6617579 15.6538462,52.6617579 L21.3461538,52.6617579 C24.4899286,52.6617579 27.0384615,50.1283448 27.0384615,47.0032214 C27.0384615,46.2219405 26.4013283,45.5885872 25.6153846,45.5885872 Z M21.3461538,49.8324896 L15.6538462,49.8324896 C14.6380561,49.8314539 13.6998178,49.2923372 13.1919231,48.4178555 L23.8080769,48.4178555 C23.3001822,49.2923372 22.3619439,49.8314539 21.3461538,49.8324896 Z" id="Shape"></path>
                                    <path d="M25.6153846,37.1007823 L11.3846154,37.1007823 C10.5986717,37.1007823 9.96153846,37.7341356 9.96153846,38.5154165 L9.96153846,42.7593189 C9.96153846,43.5405998 10.5986717,44.1739531 11.3846154,44.1739531 L25.6153846,44.1739531 C26.4013283,44.1739531 27.0384615,43.5405998 27.0384615,42.7593189 L27.0384615,38.5154165 C27.0384615,37.7341356 26.4013283,37.1007823 25.6153846,37.1007823 Z M12.8076923,41.3446848 L12.8076923,39.9300506 L24.1923077,39.9300506 L24.1923077,41.3446848 L12.8076923,41.3446848 Z" id="Shape"></path>
                                </g>
                            </g>
                        </g>
                    </g>
                </g>
            </g>
        </g>
    </g>
</svg>