<?xml version="1.0" encoding="UTF-8"?>
<svg width="103px" height="71px" viewBox="0 0 103 71" version="1.1" xmlns="http://www.w3.org/2000/svg" xmlns:xlink="http://www.w3.org/1999/xlink">
    <!-- Generator: Sketch 52.6 (67491) - http://www.bohemiancoding.com/sketch -->
    <title>Group 108</title>
    <desc>Created with Sketch.</desc>
    <defs>
        <filter x="-50.6%" y="-82.7%" width="201.2%" height="265.4%" filterUnits="objectBoundingBox" id="filter-1">
            <feOffset dx="0" dy="12" in="SourceAlpha" result="shadowOffsetOuter1"></feOffset>
            <feGaussianBlur stdDeviation="5" in="shadowOffsetOuter1" result="shadowBlurOuter1"></feGaussianBlur>
            <feColorMatrix values="0 0 0 0 0.00392156863   0 0 0 0 0.984313725   0 0 0 0 0.874509804  0 0 0 0.342900815 0" type="matrix" in="shadowBlurOuter1" result="shadowMatrixOuter1"></feColorMatrix>
            <feMerge>
                <feMergeNode in="shadowMatrixOuter1"></feMergeNode>
                <feMergeNode in="SourceGraphic"></feMergeNode>
            </feMerge>
        </filter>
        <linearGradient x1="0%" y1="46.4625332%" x2="61.1075438%" y2="46.4625332%" id="linearGradient-2">
            <stop stop-color="#27E1AF" offset="0%"></stop>
            <stop stop-color="#2C80FF" offset="100%"></stop>
        </linearGradient>
        <path d="M1.17802817,2.96762791 L39.7141549,25.4425116 C41.1160563,26.26 43.4122535,26.26 44.8141549,25.4425116 L83.3502817,2.96762791 C84.378662,2.36781395 84.6456338,1.48744186 84.163169,0.737674419 C83.9895775,1.00855814 83.7214085,1.26372093 83.3502817,1.48139535 L44.8141549,23.9550698 C43.4122535,24.7725581 41.1160563,24.7725581 39.7141549,23.9550698 L1.17802817,1.48139535 C0.798521127,1.26009302 0.530352113,0.997674419 0.356760563,0.720744186 C-0.122112676,1.48018605 0.148450704,2.36781395 1.17802817,2.96762791" id="path-3"></path>
        <linearGradient x1="-0.000133975152%" y1="49.9967776%" x2="100.000244%" y2="49.9967776%" id="linearGradient-5">
            <stop stop-color="#91A5F0" offset="0%"></stop>
            <stop stop-color="#DBE4FB" offset="100%"></stop>
        </linearGradient>
    </defs>
    <g id="Welcome" stroke="none" stroke-width="1" fill="none" fill-rule="evenodd">
        <g id="Home_v4@2x" transform="translate(-778.000000, -1415.000000)">
            <g id="Group-108" filter="url(#filter-1)" transform="translate(787.000000, 1414.000000)">
                <g id="Group-97" transform="translate(0.000000, 0.261209)">
                    <path d="M39.1748239,1.40980465 C40.5683451,0.577804651 42.8549648,0.564502326 44.2580634,1.3819907 L83.3496831,24.1797581 C84.7515845,24.9984558 84.7515845,26.3359442 83.3496831,27.1534326 L44.8135563,49.6283163 C43.4116549,50.4458047 41.1166549,50.4458047 39.7147535,49.6283163 L1.17862676,27.1534326 C-0.223274648,26.3359442 -0.23165493,24.9851535 1.16306338,24.1519442 L39.1748239,1.40980465 Z" id="Fill-87" fill="#F3F8FE"></path>
                    <path d="M83.3495634,24.1798791 L44.2579437,1.38090233 C42.8548451,0.564623256 40.5682254,0.576716279 39.1747042,1.40992558 L34.7235775,4.0728093 L78.8254085,29.7934605 L83.3495634,27.1535535 C84.7514648,26.3360651 84.7514648,24.9985767 83.3495634,24.1798791" id="Fill-89" fill="url(#linearGradient-2)" fill-rule="nonzero"></path>
                    <path d="M44.2154437,5.59386977 C44.7817113,5.26614884 44.7817113,4.7280093 44.2154437,4.40149767 C43.6491761,4.07256744 42.7261479,4.07256744 42.1634718,4.40149767 C41.6007958,4.7280093 41.6007958,5.26614884 42.1634718,5.59386977 C42.7261479,5.9215907 43.6491761,5.9215907 44.2154437,5.59386977" id="Fill-91" fill="#FFFFFF"></path>
                    <path d="M47.497162,7.70313488 C48.0634296,7.37541395 48.0634296,6.83848372 47.497162,6.51076279 C46.9308944,6.18183256 46.0078662,6.18183256 45.4451901,6.51076279 C44.8825141,6.83848372 44.8825141,7.37541395 45.4451901,7.70313488 C46.0078662,8.03085581 46.9308944,8.03085581 47.497162,7.70313488" id="Fill-93" fill="#FFFFFF"></path>
                    <path d="M50.7788803,9.70017674 C51.3451479,9.37245581 51.3451479,8.83431628 50.7788803,8.50780465 C50.2126127,8.17887442 49.2895845,8.17887442 48.7281056,8.50780465 C48.1642324,8.83431628 48.1642324,9.37245581 48.7281056,9.70017674 C49.2895845,10.0278977 50.2126127,10.0278977 50.7788803,9.70017674" id="Fill-95" fill="#FFFFFF"></path>
                </g>
                <g id="Group-100" transform="translate(0.000000, 24.447256)">
                    <mask id="mask-4" fill="white">
                        <use xlink:href="#path-3"></use>
                    </mask>
                    <g id="Clip-99"></g>
                    <path d="M1.17802817,2.96762791 L39.7141549,25.4425116 C41.1160563,26.26 43.4122535,26.26 44.8141549,25.4425116 L83.3502817,2.96762791 C84.378662,2.36781395 84.6456338,1.48744186 84.163169,0.737674419 C83.9895775,1.00855814 83.7214085,1.26372093 83.3502817,1.48139535 L44.8141549,23.9550698 C43.4122535,24.7725581 41.1160563,24.7725581 39.7141549,23.9550698 L1.17802817,1.48139535 C0.798521127,1.26009302 0.530352113,0.997674419 0.356760563,0.720744186 C-0.122112676,1.48018605 0.148450704,2.36781395 1.17802817,2.96762791" id="Fill-98" fill="url(#linearGradient-5)" mask="url(#mask-4)"></path>
                </g>
                <g id="Group-107" transform="translate(26.338028, 14.772837)" fill="url(#linearGradient-2)" fill-rule="nonzero">
                    <polygon id="Fill-101" points="0.494915493 1.83971163 1.52090141 0.278502326 10.5392817 2.56892093 9.43787324 4.24259535 3.50583099 2.69347907 7.19076056 7.66008372 6.08216901 9.34706047"></polygon>
                    <polygon id="Fill-103" points="19.1973099 6.52213023 21.3318873 7.95394419 8.15209859 14.1661302 6.03428169 12.7452"></polygon>
                    <polygon id="Fill-105" points="27.5735211 17.7554605 26.5475352 19.3154605 17.5303521 17.0250419 18.6389437 15.3404837 24.6009155 16.8448558 20.8860563 11.9229953 21.9862676 10.2481116"></polygon>
                </g>
            </g>
        </g>
    </g>
</svg>