<?xml version="1.0" encoding="UTF-8"?>
<svg width="73px" height="69px" viewBox="0 0 73 69" version="1.1" xmlns="http://www.w3.org/2000/svg" xmlns:xlink="http://www.w3.org/1999/xlink">
    <!-- Generator: Sketch 52.6 (67491) - http://www.bohemiancoding.com/sketch -->
    <title>Group 105</title>
    <desc>Created with Sketch.</desc>
    <defs>
        <filter x="-76.8%" y="-87.8%" width="253.6%" height="275.5%" filterUnits="objectBoundingBox" id="filter-1">
            <feOffset dx="0" dy="12" in="SourceAlpha" result="shadowOffsetOuter1"></feOffset>
            <feGaussianBlur stdDeviation="5" in="shadowOffsetOuter1" result="shadowBlurOuter1"></feGaussianBlur>
            <feColorMatrix values="0 0 0 0 0.00392156863   0 0 0 0 0.984313725   0 0 0 0 0.874509804  0 0 0 0.342900815 0" type="matrix" in="shadowBlurOuter1" result="shadowMatrixOuter1"></feColorMatrix>
            <feMerge>
                <feMergeNode in="shadowMatrixOuter1"></feMergeNode>
                <feMergeNode in="SourceGraphic"></feMergeNode>
            </feMerge>
        </filter>
        <path d="M8.02042553,5.89894118 C5.18297872,7.54170588 3.15404255,9.47788235 1.87914894,11.5385882 L0.376170213,11.5385882 L0.29787234,16.733 C0.29787234,20.6599412 2.87319149,24.5868824 8.02042553,27.5670588 C18.32,33.5274118 35.1744681,33.5274118 45.4740426,27.5670588 C50.6314894,24.5834706 53.2051064,20.6462941 53.1948936,16.7108235 L53.2374468,16.733 L53.1608511,11.5385882 L51.613617,11.5385882 C50.3404255,9.47788235 48.3114894,7.54170588 45.4740426,5.89894118 C40.3234043,2.91876471 33.5353191,1.42952941 26.747234,1.42952941 C19.9591489,1.42952941 13.1710638,2.91876471 8.02042553,5.89894118" id="path-2"></path>
        <linearGradient x1="-0.000643366986%" y1="49.9965869%" x2="100.000317%" y2="49.9965869%" id="linearGradient-4">
            <stop stop-color="#91A5F0" offset="0%"></stop>
            <stop stop-color="#DBE4FB" offset="100%"></stop>
        </linearGradient>
        <path d="M8.02042553,5.42811765 C5.18297872,7.07088235 3.15404255,9.00705882 1.87914894,11.0694706 L0.376170213,11.0694706 L0.29787234,16.2638824 C0.29787234,20.1908235 2.87319149,24.1177647 8.02042553,27.0979412 C18.32,33.0565882 35.1744681,33.0565882 45.4740426,27.0979412 C50.6314894,24.1126471 53.2051064,20.1771765 53.1948936,16.2417059 L53.2374468,16.2638824 L53.1608511,11.0694706 L51.613617,11.0694706 C50.3404255,9.00705882 48.3114894,7.07088235 45.4740426,5.42811765 C40.3234043,2.44964706 33.5353191,0.958705882 26.747234,0.958705882 C19.9591489,0.958705882 13.1710638,2.44964706 8.02042553,5.42811765" id="path-5"></path>
        <linearGradient x1="-0.000643366986%" y1="50.0020186%" x2="100.000317%" y2="50.0020186%" id="linearGradient-7">
            <stop stop-color="#91A5F0" offset="0%"></stop>
            <stop stop-color="#DBE4FB" offset="100%"></stop>
        </linearGradient>
        <path d="M8.02042553,4.69970588 C5.18297872,6.34417647 3.15404255,8.28035294 1.87914894,10.3410588 L0.376170213,10.3410588 L0.29787234,15.5354706 C0.29787234,19.4641176 2.87319149,23.3893529 8.02042553,26.3712353 C18.32,32.3298824 35.1744681,32.3298824 45.4740426,26.3712353 C50.6314894,23.3842353 53.2051064,19.4487647 53.1948936,15.5132941 L53.2374468,15.5354706 L53.1608511,10.3410588 L51.613617,10.3410588 C50.3404255,8.28035294 48.3114894,6.34417647 45.4740426,4.69970588 C40.3234043,1.72123529 33.5353191,0.232 26.747234,0.232 C19.9591489,0.232 13.1710638,1.72123529 8.02042553,4.69970588" id="path-8"></path>
        <linearGradient x1="-0.000643366986%" y1="49.9970083%" x2="100.000317%" y2="49.9970083%" id="linearGradient-10">
            <stop stop-color="#91A5F0" offset="0%"></stop>
            <stop stop-color="#DBE4FB" offset="100%"></stop>
        </linearGradient>
    </defs>
    <g id="Welcome" stroke="none" stroke-width="1" fill="none" fill-rule="evenodd">
        <g id="Home_v4@2x" transform="translate(-579.000000, -1529.000000)">
            <g id="Group-105" filter="url(#filter-1)" transform="translate(588.000000, 1528.000000)">
                <g id="Group-89" transform="translate(0.617021, 15.850206)">
                    <mask id="mask-3" fill="white">
                        <use xlink:href="#path-2"></use>
                    </mask>
                    <g id="Clip-88"></g>
                    <path d="M8.02042553,5.89894118 C5.18297872,7.54170588 3.15404255,9.47788235 1.87914894,11.5385882 L0.376170213,11.5385882 L0.29787234,16.733 C0.29787234,20.6599412 2.87319149,24.5868824 8.02042553,27.5670588 C18.32,33.5274118 35.1744681,33.5274118 45.4740426,27.5670588 C50.6314894,24.5834706 53.2051064,20.6462941 53.1948936,16.7108235 L53.2374468,16.733 L53.1608511,11.5385882 L51.613617,11.5385882 C50.3404255,9.47788235 48.3114894,7.54170588 45.4740426,5.89894118 C40.3234043,2.91876471 33.5353191,1.42952941 26.747234,1.42952941 C19.9591489,1.42952941 13.1710638,2.91876471 8.02042553,5.89894118" id="Fill-87" fill="url(#linearGradient-4)" mask="url(#mask-3)"></path>
                </g>
                <path d="M46.0898723,17.6082882 C35.7902979,11.6479353 18.9375319,11.6479353 8.63965957,17.6082882 C-1.65991489,23.5669353 -1.65991489,33.3177588 8.63965957,39.2781118 C18.9375319,45.2367588 35.7902979,45.2367588 46.0898723,39.2781118 C56.3877447,33.3177588 56.3877447,23.5669353 46.0898723,17.6082882" id="Fill-90" fill="#F3F8FE"></path>
                <g id="Group-94" transform="translate(0.617021, 10.732559)">
                    <mask id="mask-6" fill="white">
                        <use xlink:href="#path-5"></use>
                    </mask>
                    <g id="Clip-93"></g>
                    <path d="M8.02042553,5.42811765 C5.18297872,7.07088235 3.15404255,9.00705882 1.87914894,11.0694706 L0.376170213,11.0694706 L0.29787234,16.2638824 C0.29787234,20.1908235 2.87319149,24.1177647 8.02042553,27.0979412 C18.32,33.0565882 35.1744681,33.0565882 45.4740426,27.0979412 C50.6314894,24.1126471 53.2051064,20.1771765 53.1948936,16.2417059 L53.2374468,16.2638824 L53.1608511,11.0694706 L51.613617,11.0694706 C50.3404255,9.00705882 48.3114894,7.07088235 45.4740426,5.42811765 C40.3234043,2.44964706 33.5353191,0.958705882 26.747234,0.958705882 C19.9591489,0.958705882 13.1710638,2.44964706 8.02042553,5.42811765" id="Fill-92" fill="url(#linearGradient-7)" mask="url(#mask-6)"></path>
                </g>
                <path d="M46.0898723,12.0208412 C35.7902979,6.06219412 18.9375319,6.06219412 8.63965957,12.0208412 C-1.65991489,17.9794882 -1.65991489,27.7320176 8.63965957,33.6906647 C18.9375319,39.6493118 35.7902979,39.6493118 46.0898723,33.6906647 C56.3877447,27.7320176 56.3877447,17.9794882 46.0898723,12.0208412" id="Fill-95" fill="#F3F8FE"></path>
                <g id="Group-99" transform="translate(0.617021, 5.614912)">
                    <mask id="mask-9" fill="white">
                        <use xlink:href="#path-8"></use>
                    </mask>
                    <g id="Clip-98"></g>
                    <path d="M8.02042553,4.69970588 C5.18297872,6.34417647 3.15404255,8.28035294 1.87914894,10.3410588 L0.376170213,10.3410588 L0.29787234,15.5354706 C0.29787234,19.4641176 2.87319149,23.3893529 8.02042553,26.3712353 C18.32,32.3298824 35.1744681,32.3298824 45.4740426,26.3712353 C50.6314894,23.3842353 53.2051064,19.4487647 53.1948936,15.5132941 L53.2374468,15.5354706 L53.1608511,10.3410588 L51.613617,10.3410588 C50.3404255,8.28035294 48.3114894,6.34417647 45.4740426,4.69970588 C40.3234043,1.72123529 33.5353191,0.232 26.747234,0.232 C19.9591489,0.232 13.1710638,1.72123529 8.02042553,4.69970588" id="Fill-97" fill="url(#linearGradient-10)" mask="url(#mask-9)"></path>
                </g>
                <g id="Group-104" transform="translate(0.617021, 0.497265)">
                    <path d="M45.4728511,5.67785882 C35.1732766,-0.280788235 18.3205106,-0.280788235 8.0226383,5.67785882 C-2.27693617,11.6365059 -2.27693617,21.3890353 8.0226383,27.3476824 C18.3205106,33.3063294 35.1732766,33.3063294 45.4728511,27.3476824 C55.7707234,21.3890353 55.7707234,11.6365059 45.4728511,5.67785882" id="Fill-100" fill="#F3F8FE"></path>
                    <path d="M34.6626383,21.8905647 L16.698383,18.6033294 C15.2617872,18.0915647 14.4413617,16.9810353 15.2226383,16.6057412 L29.3026383,9.83509412 C30.085617,9.45809412 31.8830638,10.0978 32.538383,10.9865647 L36.4209362,21.0444471 C37.0779574,21.9315059 36.1009362,22.4023294 34.6626383,21.8905647 L16.698383,18.6033294 C15.2617872,18.0915647 14.4413617,16.9810353 15.2226383,16.6057412 L29.3026383,9.83509412 C30.085617,9.45809412 31.8830638,10.0978 32.538383,10.9865647 L36.4209362,21.0444471 C37.0779574,21.9315059 36.1009362,22.4023294 34.6626383,21.8905647" id="Fill-102" fill="#1067DB"></path>
                </g>
            </g>
        </g>
    </g>
</svg>