<?xml version="1.0" encoding="UTF-8"?>
<svg width="36px" height="34px" viewBox="0 0 36 34" version="1.1" xmlns="http://www.w3.org/2000/svg" xmlns:xlink="http://www.w3.org/1999/xlink">
    <!-- Generator: Sketch 53.2 (72643) - https://sketchapp.com -->
    <title>Group</title>
    <desc>Created with Sketch.</desc>
    <g id="Welcome" stroke="none" stroke-width="1" fill="none" fill-rule="evenodd" stroke-linejoin="round">
        <g id="Home_v7@2x" transform="translate(-87.000000, -26.000000)" stroke="#2A7CF8" stroke-width="1.4">
            <g id="Group" transform="translate(88.000000, 27.000000)">
                <path d="M29.4678734,28.6560132 C23.7757991,25.1964636 17.9734165,22.6324988 11.3988532,22.6252754 L7.90565641,22.6252754 C5.72148834,22.6252754 3.74323616,21.7585841 2.3165407,20.3502086 C0.882491675,18.9490536 0,17.0062196 0,14.8611537 C0,10.5710243 3.53732104,7.097032 7.90565648,7.097032 L11.406207,7.097032 C17.8704594,7.097032 24.1361508,5.0891936 29.3281436,1.39130435" id="Path" stroke-linecap="round"></path>
                <ellipse id="Oval" stroke-linecap="round" cx="30.8029718" cy="15.2574038" rx="3.17797178" ry="15.2574038"></ellipse>
                <path d="M12.3958333,6.95652174 L12.3958333,22.5063901" id="Path" stroke-linecap="round"></path>
                <polyline id="Path" stroke-linecap="round" points="9.0030883 22.9614443 10.3930125 31.9606058 6.45121546 31.9606058 4.95833333 22.2608696"></polyline>
                <path d="M27.625,11.1304348 C29.8132583,11.1304348 31.5871937,12.8726117 31.5871937,15.0216941 C31.5871937,17.1707764 29.8132583,18.9129533 27.625,18.9129533" id="Path"></path>
            </g>
        </g>
    </g>
</svg>