<?xml version="1.0" encoding="UTF-8"?>
<svg width="1440px" height="1291px" viewBox="0 0 1440 1291" version="1.1" xmlns="http://www.w3.org/2000/svg" xmlns:xlink="http://www.w3.org/1999/xlink">
    <!-- Generator: Sketch 52.6 (67491) - http://www.bohemiancoding.com/sketch -->
    <title>Group 26</title>
    <desc>Created with Sketch.</desc>
    <g id="Welcome" stroke="none" stroke-width="1" fill="none" fill-rule="evenodd" opacity="0.579589844">
        <g id="Home_v4@2x" transform="translate(0.000000, -336.000000)" stroke="#FFFFFF" stroke-width="2">
            <g id="Group-26" transform="translate(-876.000000, -196.000000)">
                <g id="Group-11" transform="translate(1395.000000, 0.000000)">
                    <polygon id="Triangle" opacity="0.2" transform="translate(881.493616, 901.567926) rotate(-59.000000) translate(-881.493616, -901.567926) " points="881.517276 327.030134 1588.04333 1476.07662 174.943898 1476.10572"></polygon>
                    <polygon id="Triangle-Copy" opacity="0.1" transform="translate(900.889701, 910.200654) rotate(-49.000000) translate(-900.889701, -910.200654) " points="900.916236 335.657553 1607.43398 1484.71112 194.345425 1484.74376"></polygon>
                    <polygon id="Triangle-Copy-2" opacity="0.1" transform="translate(833.244108, 937.210815) rotate(-63.000000) translate(-833.244108, -937.210815) " points="833.265787 362.675217 1072.03531 750.991095 1539.79578 1511.71975 126.692441 1511.74641"></polygon>
                </g>
                <g id="Group-11-Copy" transform="translate(899.500000, 914.000000) scale(-1, 1) translate(-899.500000, -914.000000) ">
                    <polygon id="Triangle" opacity="0.2" transform="translate(881.493616, 901.567926) rotate(-59.000000) translate(-881.493616, -901.567926) " points="881.517276 327.030134 1588.04333 1476.07662 174.943898 1476.10572"></polygon>
                    <polygon id="Triangle-Copy" opacity="0.1" transform="translate(900.889701, 910.200654) rotate(-49.000000) translate(-900.889701, -910.200654) " points="900.916236 335.657553 1607.43398 1484.71112 194.345425 1484.74376"></polygon>
                    <polygon id="Triangle-Copy-2" opacity="0.1" transform="translate(833.244108, 937.210815) rotate(-63.000000) translate(-833.244108, -937.210815) " points="833.265787 362.675217 1539.79578 1511.71975 126.692441 1511.74641"></polygon>
                </g>
            </g>
        </g>
    </g>
</svg>