<?xml version="1.0" encoding="UTF-8"?>
<svg width="60px" height="37px" viewBox="0 0 60 37" version="1.1" xmlns="http://www.w3.org/2000/svg" xmlns:xlink="http://www.w3.org/1999/xlink">
    <!-- Generator: Sketch 53 (72520) - https://sketchapp.com -->
    <title>Combined Shape</title>
    <desc>Created with Sketch.</desc>
    <g id="v.2" stroke="none" stroke-width="1" fill="none" fill-rule="evenodd">
        <path d="M2.5,0 L56.5,0 C57.8807119,-2.53632657e-16 59,1.11928813 59,2.5 C59,3.88071187 57.8807119,5 56.5,5 L2.5,5 C1.11928813,5 1.69088438e-16,3.88071187 0,2.5 C-1.69088438e-16,1.11928813 1.11928813,2.53632657e-16 2.5,0 Z M2.5,16 L56.5,16 C57.8807119,16 59,17.1192881 59,18.5 C59,19.8807119 57.8807119,21 56.5,21 L2.5,21 C1.11928813,21 1.69088438e-16,19.8807119 0,18.5 C-1.69088438e-16,17.1192881 1.11928813,16 2.5,16 Z M3.5,32 L57.5,32 C58.8807119,32 60,33.1192881 60,34.5 C60,35.8807119 58.8807119,37 57.5,37 L3.5,37 C2.11928813,37 1,35.8807119 1,34.5 C1,33.1192881 2.11928813,32 3.5,32 Z" id="Combined-Shape" fill="#FFFFFF"></path>
    </g>
</svg>