<?xml version="1.0" encoding="UTF-8"?>
<svg width="18px" height="9px" viewBox="0 0 18 9" version="1.1" xmlns="http://www.w3.org/2000/svg" xmlns:xlink="http://www.w3.org/1999/xlink">
    <!-- Generator: Sketch 52.6 (67491) - http://www.bohemiancoding.com/sketch -->
    <title>Group</title>
    <desc>Created with Sketch.</desc>
    <g id="Welcome" stroke="none" stroke-width="1" fill="none" fill-rule="evenodd">
        <g id="Home_v4@2x" transform="translate(-827.000000, -5115.000000)" fill="#FFFFFF">
            <g id="Group-8" transform="translate(226.000000, 4854.000000)">
                <g id="Group" transform="translate(601.000000, 261.000000)">
                    <path d="M0.40145548,4.65021818 L4.00145548,8.53658182 C4.16711548,8.70666136 4.41491548,8.69982955 4.56709548,8.55253636 C4.71925548,8.40528409 4.72669548,8.1297 4.58269548,7.97406136 L1.62643548,4.77803864 L17.599992,4.77803864 C17.820892,4.77803864 17.999992,4.59488864 17.999992,4.36894773 C17.999992,4.14300682 17.820892,3.95985682 17.599992,3.95985682 L1.62643548,3.95985682 L4.58269548,0.763842273 C4.72667548,0.608203636 4.71417548,0.337896818 4.56709548,0.185367273 C4.41491548,0.0275809091 4.14545548,0.0457036364 4.00145548,0.201321818 L0.40145548,4.08767727 C0.30649548,4.18698409 0.30141548,4.2714 0.29521548,4.36892727 C0.30161548,4.49228864 0.34465548,4.58922273 0.40145548,4.65021818 Z" id="Path" transform="translate(9.147604, 4.369535) scale(-1, 1) translate(-9.147604, -4.369535) "></path>
                </g>
            </g>
        </g>
    </g>
</svg>