<?xml version="1.0"?>
<svg xmlns="http://www.w3.org/2000/svg" height="512px" viewBox="0 -35 418 418" width="512px"><path d="m222.710938 229.601562c-4.570313.003907-8.5 3.234376-9.386719 7.714844-.886719 4.480469 1.515625 8.964844 5.738281 10.710938 4.21875 1.742187 9.085938.261718 11.621094-3.539063 2.535156-3.796875 2.035156-8.859375-1.199219-12.089843-1.796875-1.796876-4.234375-2.804688-6.773437-2.796876zm0 0" fill="#2c80ff"/><path d="m229.292969 163.789062c3.742187-3.742187 3.742187-9.808593 0-13.550781-3.742188-3.738281-9.808594-3.742187-13.550781 0-3.742188 3.742188-3.742188 9.808594 0 13.550781 3.742187 3.742188 9.808593 3.742188 13.550781 0zm0 0" fill="#2c80ff"/><path d="m263.691406 188.609375c-4.570312 0-8.503906 3.226563-9.398437 7.710937-.890625 4.484376 1.507812 8.972657 5.730469 10.722657 4.222656 1.75 9.09375.273437 11.636718-3.527344 2.539063-3.800781 2.039063-8.867187-1.191406-12.101563-1.792969-1.800781-4.234375-2.8125-6.777344-2.804687zm0 0" fill="#2c80ff"/><path d="m37 348v-246.101562c0-24.8125 20.617188-44.898438 45.433594-44.898438h112.730468l-36.738281-45.3125c-5.84375-7.304688-14.664062-11.59375-24.019531-11.6875h-103.144531c-17.097657 0-31.261719 14.378906-31.261719 31.472656v285.054688c0 17.09375 14.164062 31.472656 31.261719 31.472656zm0 0" fill="#2c80ff"/><path d="m181.535156 188.421875c-4.570312.003906-8.5 3.234375-9.386718 7.714844-.886719 4.480469 1.511718 8.96875 5.734374 10.710937 4.222657 1.746094 9.089844.265625 11.625-3.535156 2.535157-3.800781 2.035157-8.863281-1.199218-12.089844-1.796875-1.800781-4.234375-2.804687-6.773438-2.800781zm0 0" fill="#2c80ff"/><path d="m386.738281 71h-304.304687c-17.09375 0-31.433594 13.808594-31.433594 30.898438v246.101562h335.738281c17.097657 0 31.261719-14.378906 31.261719-31.472656v-214.628906c0-17.089844-14.164062-30.898438-31.261719-30.898438zm-45.199219 262.292969c-3.050781 2.371093-7.449218 1.820312-9.820312-1.230469-14.199219-18.398438-36.152344-29.140625-59.394531-29.0625h-45.53125c-.347657-.003906-.695313-.035156-1.035157-.09375-1.046874.03125-2.09375.042969-3.144531.042969-52.675781.027343-97.207031-39.011719-104.070312-91.242188-6.867188-52.226562 26.0625-101.449219 76.957031-115.035156 50.898438-13.585937 103.976562 12.675781 124.054688 61.375 20.078124 48.703125.929687 104.742187-44.753907 130.972656 26.691407.648438 51.664063 13.308594 67.972657 34.449219 2.371093 3.054688 1.816406 7.453125-1.238282 9.824219zm0 0" fill="#2c80ff"/><path d="m313.46875 198.09375c0-50.175781-40.675781-90.855469-90.855469-90.855469-50.175781 0-90.855469 40.675781-90.855469 90.855469 0 50.175781 40.675782 90.855469 90.855469 90.855469 50.15625-.054688 90.800781-40.699219 90.855469-90.855469zm-107.625-57.753906c7.957031-7.953125 20.421875-9.183594 29.777344-2.933594 9.351562 6.253906 12.988281 18.238281 8.683594 28.632812-4.304688 10.394532-15.355469 16.296876-26.386719 14.101563-11.035157-2.191406-18.980469-11.875-18.980469-23.125.003906-6.253906 2.488281-12.25 6.90625-16.675781zm-24.308594 81.226562c-10.671875 0-20.011718-7.167968-22.773437-17.476562-2.761719-10.304688 1.746093-21.183594 10.988281-26.519532 9.242188-5.332031 20.914062-3.792968 28.457031 3.753907 6.75 6.738281 8.769531 16.882812 5.117188 25.695312-3.652344 8.8125-12.253907 14.554688-21.792969 14.546875zm57.851563 34.28125c-9.210938 9.207032-24.140625 9.207032-33.351563 0-9.207031-9.210937-9.207031-24.140625 0-33.347656 9.210938-9.210938 24.140625-9.210938 33.351563 0 9.191406 9.214844 9.191406 24.132812 0 33.347656zm24.304687-34.078125c-11.25 0-20.929687-7.945312-23.125-18.980469-2.195312-11.03125 3.710938-22.078124 14.101563-26.386718 10.394531-4.304688 22.382812-.667969 28.632812 8.6875 6.25 9.351562 5.023438 21.820312-2.933593 29.773437-4.410157 4.4375-10.417969 6.925781-16.675782 6.90625zm0 0" fill="#2c80ff"/></svg>
