<?xml version="1.0" encoding="UTF-8"?>
<svg width="29px" height="20px" viewBox="0 0 29 20" version="1.1" xmlns="http://www.w3.org/2000/svg" xmlns:xlink="http://www.w3.org/1999/xlink">
    <!-- Generator: Sketch 53.2 (72643) - https://sketchapp.com -->
    <title>Fill 1</title>
    <desc>Created with Sketch.</desc>
    <g id="Welcome" stroke="none" stroke-width="1" fill="none" fill-rule="evenodd">
        <g id="Home_v7@2x" transform="translate(-819.000000, -5611.000000)" fill="#2C80FF">
            <g id="Group-27" transform="translate(-876.000000, -116.000000)">
                <g id="Group-26" transform="translate(383.000000, 196.000000)">
                    <g id="Group-20" transform="translate(895.000000, 5459.000000)">
                        <g id="Group-25" transform="translate(0.000000, 70.000000)">
                            <path d="M423.342985,12.6002283 L439.657015,12.6002283 L439.657015,11.7128458 L423.342985,11.7128458 L423.342985,12.6002283 Z M423.342985,14.5187494 L439.657015,14.5187494 L439.657015,13.6313669 L423.342985,13.6313669 L423.342985,14.5187494 Z M423.342985,16.4372705 L439.657015,16.4372705 L439.657015,15.5498879 L423.342985,15.5498879 L423.342985,16.4372705 Z M433.274604,19.9224655 L429.72313,19.9224655 C429.297153,19.9224655 428.956824,19.6305166 428.887489,19.2569286 L434.110245,19.2569286 C434.04091,19.6305166 433.700581,19.9224655 433.274604,19.9224655 L433.274604,19.9224655 Z M423.342985,9.7171224 L439.657015,9.7171224 L439.657015,4.92969351 L423.342985,4.92969351 L423.342985,9.7171224 Z M445.997734,19.2569286 L444.276151,19.2569286 L444.276151,3.15359732 C444.276151,2.51734403 443.747758,2 443.097915,2 L419.904804,2 C419.254961,2 418.726568,2.51778772 418.726568,3.15359732 L418.726568,19.2564849 L417,19.2564849 L417,19.9220218 L417.002719,19.9220218 L418.452402,21.03125 L444.550317,21.03125 L446,19.9220218 L445.997281,19.9220218 L445.997281,19.2569286 L445.997734,19.2569286 Z" id="Fill-1"></path>
                        </g>
                    </g>
                </g>
            </g>
        </g>
    </g>
</svg>