<?xml version="1.0"?>
<svg xmlns="http://www.w3.org/2000/svg" height="512px" viewBox="0 -64 448 448" width="512px"><path d="m0 312c0 4.417969 3.582031 8 8 8h432c4.417969 0 8-3.582031 8-8v-24h-448zm192-16h64v16h-64zm0 0" fill="#2c80ff"/><path d="m24 272h400v-248c0-13.253906-10.746094-24-24-24h-352c-13.253906 0-24 10.746094-24 24zm208-32h-96v-16h96zm-72-96v-16h48v16zm16 16v16h-32v-16zm16 0h32v16h-32zm32 32h32v16h-32zm0-48v-16h64v16zm48 16v16h-32v-16zm-8 80h-16v-16h16zm8-48h32v16h-32zm56 48h-48v-16h48zm-61.65625-186.34375 11.3125-11.3125 24 24c3.121094 3.125 3.121094 8.1875 0 11.3125l-24 24-11.3125-11.3125 18.34375-18.34375zm-33.777344-24.632812 14.867188 5.953124-32 80-14.867188-5.953124zm-86.222656 37.320312 24-24 11.3125 11.3125-18.34375 18.34375 18.34375 18.34375-11.3125 11.3125-24-24c-3.121094-3.125-3.121094-8.1875 0-11.3125zm-18.34375 61.65625h16v16h-16zm-16 64h96v16h-96zm0 0" fill="#2c80ff"/></svg>
